<?xml version="1.0" encoding="UTF-8"?>
<!DOCTYPE svg PUBLIC "-//W3C//DTD SVG 1.1//EN" "http://www.w3.org/Graphics/SVG/1.1/DTD/svg11.dtd">
<!-- Creator: CorelDRAW X7 -->
<svg xmlns="http://www.w3.org/2000/svg" xml:space="preserve" width="38.2689mm" height="26.9876mm" version="1.1" style="shape-rendering:geometricPrecision; text-rendering:geometricPrecision; image-rendering:optimizeQuality; fill-rule:evenodd; clip-rule:evenodd"
viewBox="0 0 1310 924"
 xmlns:xlink="http://www.w3.org/1999/xlink">
 <defs>
  <style type="text/css">
   <![CDATA[
    .fil3 {fill:#3FA4F5}
    .fil2 {fill:#BDBDBD}
    .fil0 {fill:#EEEEEE}
    .fil1 {fill:white}
   ]]>
  </style>
 </defs>
 <g id="Слой_x0020_1">
  <metadata id="CorelCorpID_0Corel-Layer"/>
  <path class="fil0" d="M1304 899l0 -668 -230 -231 -1049 0c-14,0 -25,11 -25,25l0 874c0,14 11,25 25,25l1254 0c14,0 25,-11 25,-25z"/>
  <path class="fil1" d="M1074 25l0 164 0 17c0,14 11,25 25,25l12 0 168 0 25 0 -7 -7 -216 -217 -7 -7 0 25z"/>
  <path class="fil2" d="M1088 231l216 0 0 25 0 164 0 17c0,6 2,12 6,16l-222 -222z"/>
  <path class="fil2" d="M232 536l748 0c-14,14 -26,31 -34,50l-714 0 0 134 715 0c8,19 20,36 35,50l-800 0 0 -184 0 -50 0 -185 25 0 937 0 0 144c-16,-5 -32,-7 -48,-7 -1,0 -2,0 -2,0l0 -87 -862 0 0 135z"/>
  <g id="_2434898629536">
   <path class="fil3" d="M1096 525c70,0 127,57 127,127 0,70 -57,127 -127,127 -70,0 -127,-57 -127,-127 0,-70 57,-127 127,-127z"/>
   <path class="fil0" d="M1088 562c-41,4 -74,34 -81,74l76 75 77 -77 -72 -72zm83 160l0 -19 0 0 1 -56 0 0 -77 76 58 -1 0 0 18 0zm-76 1l0 0 0 0z"/>
  </g>
  <polygon class="fil2" points="484,252 182,252 182,302 484,302 "/>
  <polygon class="fil2" points="484,152 182,152 182,202 484,202 "/>
  <polygon class="fil2" points="638,351 638,762 688,762 688,351 "/>
 </g>
</svg>
