<?xml version="1.0" encoding="UTF-8"?>
<!DOCTYPE svg PUBLIC "-//W3C//DTD SVG 1.1//EN" "http://www.w3.org/Graphics/SVG/1.1/DTD/svg11.dtd">
<!-- Creator: CorelDRAW X7 -->
<svg xmlns="http://www.w3.org/2000/svg" xml:space="preserve" width="38.2689mm" height="26.9876mm" version="1.1" style="shape-rendering:geometricPrecision; text-rendering:geometricPrecision; image-rendering:optimizeQuality; fill-rule:evenodd; clip-rule:evenodd"
viewBox="0 0 7507 5294"
 xmlns:xlink="http://www.w3.org/1999/xlink">
 <defs>
  <style type="text/css">
   <![CDATA[
    .fil3 {fill:#3FA4F5}
    .fil2 {fill:#BDBDBD}
    .fil0 {fill:#EEEEEE}
    .fil1 {fill:white}
   ]]>
  </style>
 </defs>
 <g id="Слой_x0020_1">
  <metadata id="CorelCorpID_0Corel-Layer"/>
  <path class="fil0" d="M7473 5151l0 -3828 -1320 -1323 -6010 0c-79,0 -143,65 -143,143l0 5008c0,78 64,143 143,143l7188 0c78,0 142,-65 142,-143z"/>
  <path class="fil1" d="M6153 143l0 942 0 95c0,79 64,143 142,143l69 0 967 0 142 0 -41 -42 -1238 -1239 -41 -42 0 143z"/>
  <path class="fil2" d="M6237 1323l1236 0 0 143 0 942 0 96c0,34 13,66 34,91l-1270 -1272z"/>
  <g id="_2434898619840">
   <path class="fil3" d="M6280 3010c401,0 726,325 726,727 0,401 -325,726 -726,726 -401,0 -727,-325 -727,-726 0,-402 326,-727 727,-727z"/>
   <path class="fil0" d="M6232 3220c-232,21 -421,196 -462,422l433 433 442 -442 -413 -413zm477 918l1 -111 0 0 4 -321 0 0 -438 438 331 -4 0 0 102 -2zm-433 6l0 0 0 0z"/>
  </g>
  <polygon class="fil2" points="2776,1443 1045,1443 1045,1728 2776,1728 "/>
  <polygon class="fil2" points="2776,871 1045,871 1045,1157 2776,1157 "/>
  <path class="fil2" d="M1188 2014l1202 0 0 1343 -1345 0 0 -1343 143 0zm916 285l-773 0 0 772 773 0 0 -772z"/>
  <path class="fil2" d="M2247 2014l1202 0 0 1343 -1345 0 0 -1343 143 0zm916 285l-773 0 0 772 773 0 0 -772z"/>
  <path class="fil2" d="M3306 2014l1202 0 0 1343 -1345 0 0 -1343 143 0zm916 285l-773 0 0 772 773 0 0 -772z"/>
  <path class="fil2" d="M4365 2014l1202 0 0 1112c-59,69 -109,146 -146,231l-1199 0 0 -1343 143 0zm916 285l-773 0 0 772 773 0 0 -772z"/>
  <path class="fil2" d="M1188 3071l1202 0 0 1343 -1345 0 0 -1343 143 0zm916 286l-773 0 0 771 773 0 0 -771z"/>
  <path class="fil2" d="M2247 3071l1202 0 0 1343 -1345 0 0 -1343 143 0zm916 286l-773 0 0 771 773 0 0 -771z"/>
  <path class="fil2" d="M3306 3071l1202 0 0 1343 -1345 0 0 -1343 143 0zm916 286l-773 0 0 771 773 0 0 -771z"/>
  <path class="fil2" d="M4365 3071l1202 0 0 55c-141,164 -226,377 -226,611 0,233 85,446 226,611l0 66 -1345 0 0 -1343 143 0zm916 286l-773 0 0 771 773 0 0 -771z"/>
  <path class="fil2" d="M5567 3071l51 0c-171,170 -277,405 -277,666 0,266 110,506 288,677l-348 0 0 -1057 0 -286 0 -1057 143 0 1202 0 0 850c-90,-36 -186,-58 -286,-64l0 -501 -773 0 0 772z"/>
 </g>
</svg>
