<?xml version="1.0" encoding="UTF-8"?>
<!DOCTYPE svg PUBLIC "-//W3C//DTD SVG 1.1//EN" "http://www.w3.org/Graphics/SVG/1.1/DTD/svg11.dtd">
<!-- Creator: CorelDRAW X7 -->
<svg xmlns="http://www.w3.org/2000/svg" xml:space="preserve" width="26.9876mm" height="38.1mm" version="1.1" style="shape-rendering:geometricPrecision; text-rendering:geometricPrecision; image-rendering:optimizeQuality; fill-rule:evenodd; clip-rule:evenodd"
viewBox="0 0 715 1009"
 xmlns:xlink="http://www.w3.org/1999/xlink">
 <defs>
  <style type="text/css">
   <![CDATA[
    .fil3 {fill:#3FA4F5}
    .fil2 {fill:#BDBDBD}
    .fil0 {fill:#EEEEEE}
    .fil1 {fill:white}
   ]]>
  </style>
 </defs>
 <g id="Слой_x0020_1">
  <metadata id="CorelCorpID_0Corel-Layer"/>
  <path class="fil0" d="M19 0l517 0 179 178 0 812c0,11 -9,19 -19,19l-677 0c-10,0 -19,-8 -19,-19l0 -971c0,-10 9,-19 19,-19z"/>
  <g id="_2434898629824">
   <path class="fil1" d="M696 178l-128 0 -13 0c-10,0 -19,-8 -19,-19l0 -9 0 -131 0 -19 6 6 167 167 6 5 -19 0z"/>
   <path class="fil2" d="M715 345l0 -167 -19 0 -128 0 -13 0c-4,0 -9,-1 -12,-4l172 171z"/>
   <polygon class="fil2" points="357,255 124,255 124,294 357,294 "/>
   <polygon class="fil2" points="357,178 124,178 124,217 357,217 "/>
   <g>
    <path class="fil3" d="M652 799c0,54 -44,98 -98,98 -55,0 -98,-44 -98,-98 0,-54 43,-98 98,-98 54,0 98,44 98,98z"/>
    <path class="fil0" d="M623 793c-2,-32 -26,-57 -56,-63l-59 59 60 59 55 -55zm-124 64l15 0 0 0 44 1 0 0 -59 -59 0 44 0 0 0 14zm0 -58l0 0 0 0z"/>
   </g>
   <polygon class="fil2" points="591,333 124,333 124,371 591,371 "/>
   <polygon class="fil2" points="591,410 124,410 124,448 591,448 "/>
   <polygon class="fil2" points="591,487 124,487 124,525 591,525 "/>
   <polygon class="fil2" points="591,564 124,564 124,603 591,603 "/>
   <polygon class="fil2" points="591,641 124,641 124,680 591,680 "/>
   <path class="fil2" d="M433 795l-309 0 0 39 314 0c-3,-11 -5,-23 -5,-35 0,-1 0,-2 0,-4z"/>
   <path class="fil2" d="M464 718l-340 0 0 39 317 0c5,-14 13,-28 23,-39z"/>
  </g>
 </g>
</svg>
