<?xml version="1.0" encoding="UTF-8"?>
<!DOCTYPE svg PUBLIC "-//W3C//DTD SVG 1.1//EN" "http://www.w3.org/Graphics/SVG/1.1/DTD/svg11.dtd">
<!-- Creator: CorelDRAW X7 -->
<svg xmlns="http://www.w3.org/2000/svg" xml:space="preserve" width="38.2689mm" height="26.9876mm" version="1.1" style="shape-rendering:geometricPrecision; text-rendering:geometricPrecision; image-rendering:optimizeQuality; fill-rule:evenodd; clip-rule:evenodd"
viewBox="0 0 7507 5294"
 xmlns:xlink="http://www.w3.org/1999/xlink">
 <defs>
  <style type="text/css">
   <![CDATA[
    .fil2 {fill:#3FA4F5}
    .fil1 {fill:#BDBDBD}
    .fil0 {fill:#EEEEEE}
    .fil3 {fill:white}
   ]]>
  </style>
 </defs>
 <g id="Слой_x0020_1">
  <metadata id="CorelCorpID_0Corel-Layer"/>
  <g id="_2434898570688">
   <path class="fil0" d="M7473 5151l0 -3828 -1320 -1323 -6010 0c-79,0 -143,65 -143,143l0 5008c0,78 64,143 143,143l7188 0c78,0 142,-65 142,-143z"/>
   <path class="fil1" d="M6237 1323l1236 0 0 143 0 942 0 96c0,34 13,66 34,91l-1270 -1272z"/>
   <path class="fil1" d="M1331 3071l4284 0c-81,82 -148,178 -196,286l-4088 0 0 771 4093 0c49,107 118,204 202,285l-4581 0 0 -1056 0 -286 0 -1057 143 0 5365 0 0 823c-86,-27 -178,-41 -273,-41 -5,0 -9,0 -13,0l0 -497 -4936 0 0 772z"/>
   <g>
    <path class="fil2" d="M6280 3010c401,0 726,325 726,727 0,401 -325,726 -726,726 -401,0 -727,-325 -727,-726 0,-402 326,-727 727,-727z"/>
    <path class="fil0" d="M6232 3220c-232,21 -421,196 -462,422l433 433 442 -442 -413 -413zm477 918l1 -111 0 0 4 -321 0 0 -438 438 331 -4 0 0 102 -2zm-433 6l0 0 0 0z"/>
   </g>
   <path class="fil1" d="M1186 957l1186 0 0 1342 -1327 0 0 -1342 141 0zm904 285l-763 0 0 772 763 0 0 -772z"/>
   <path class="fil1" d="M2231 957l1186 0 0 1342 -1327 0 0 -1342 141 0zm904 285l-763 0 0 772 763 0 0 -772z"/>
   <path class="fil1" d="M3276 957l1186 0 0 1342 -1327 0 0 -1342 141 0zm904 285l-763 0 0 772 763 0 0 -772z"/>
   <path class="fil1" d="M4322 957l1186 0 0 1342 -1328 0 0 -1342 142 0zm903 285l-762 0 0 772 762 0 0 -772z"/>
   <path class="fil1" d="M5367 957l1186 0 0 1342 -1327 0 0 -1342 141 0zm904 285l-763 0 0 772 763 0 0 -772z"/>
   <path class="fil3" d="M6153 143l0 942 0 95c0,79 64,143 142,143l69 0 967 0 142 0 -41 -42 -1238 -1239 -41 -42 0 143z"/>
  </g>
 </g>
</svg>
