<svg width="100" height="100" viewBox="0 0 100 100" fill="none" xmlns="http://www.w3.org/2000/svg">
<path fill-rule="evenodd" clip-rule="evenodd" d="M50 0C77.6471 0 100 22.3529 100 50C100 77.6471 77.6471 100 50 100C22.3529 100 0 77.6471 0 50C0 22.3529 22.3529 0 50 0Z" fill="#EFEFEF"/>
<path d="M59.3248 35.2987C61.9625 35.2941 64.6003 35.2895 67.2426 35.3033C67.4126 40.208 67.215 45.1173 67.3575 50.0265C72.3296 50.4357 77.3478 49.7829 82.3016 50.4219C82.3751 53.0788 82.3521 55.7402 82.3383 58.4017C77.4167 58.6316 72.4675 58.0984 67.5781 58.797C66.9715 63.6604 67.4861 68.588 67.2794 73.4789C64.7151 73.5019 62.1463 73.58 59.5821 73.4789C59.095 73.079 58.8974 72.5642 58.9801 71.9298C58.9112 67.4526 59.1502 62.9663 58.8423 58.4891C53.939 58.3833 49.0312 58.4937 44.128 58.4293C44.1371 55.6713 44.0682 52.9133 44.1969 50.1553C48.829 50.0725 53.4749 50.2978 58.0978 50.0633C59.2559 49.3416 59.0675 47.8201 59.2651 46.6618C59.3524 42.8741 59.2053 39.0864 59.3248 35.2987Z" fill="#FEFEFE"/>
<path d="M34.6615 18.0306C40.299 16.2228 46.6876 21.0779 46.6605 26.8727C46.8188 29.7142 45.276 32.2558 43.43 34.3052C45.2036 35.3389 47.1762 35.943 49.0403 36.7887C52.4971 38.3593 55.0534 41.9346 54.9674 45.7605C54.6055 45.9529 53.877 46.3467 53.5151 46.5436C52.402 44.6732 52.2301 42.2926 50.6013 40.7265C48.425 38.3772 45.0859 37.8268 42.2762 36.5381C40.8827 35.8087 39.3353 36.198 37.8693 36.3949C36.4034 36.6142 34.9646 36.0011 33.5077 36.1533C31.9287 36.5515 30.4627 37.2899 28.9335 37.8313C26.9155 38.5696 24.78 39.4288 23.4769 41.2232C21.735 43.3442 21.7531 46.208 21.4318 48.781C21.4228 52.6158 20.9703 56.4193 20.8663 60.2497C20.3188 63.1404 20.545 66.0982 20.174 69.0067C20.0111 71.4813 20.1514 73.9871 19.4818 76.4079C19.0248 76.4214 18.1108 76.4527 17.6539 76.4706C17.6313 74.193 17.6629 71.9108 17.776 69.6377C18.5135 64.0666 18.2964 58.4106 19.0836 52.8395C19.4049 48.3022 18.6357 43.0175 22.0155 39.3796C24.2642 36.5963 27.9969 36.0638 30.9831 34.3902C29.3452 32.5064 27.7028 30.3361 27.6621 27.7408C27.2549 23.4003 30.3949 19.0956 34.6615 18.0306ZM35.4806 20.0653C32.7385 20.4323 30.3703 22.6081 29.5556 25.204C28.603 28.5163 30.5172 32.209 33.7 33.4915C38.0135 35.7159 43.9296 31.665 43.253 26.8314C43.5646 22.7938 39.3713 19.4904 35.4806 20.0653Z" fill="#FF6600"/>
<path d="M59.6349 20.9345C60.1861 20.7021 61.2813 20.2324 61.8325 20C63.8511 21.9782 64.3594 24.3738 64.2949 26.7125C63.6865 26.7979 62.4839 26.9734 61.8754 27.0588C60.2863 25.1945 59.7423 23.0503 59.6349 20.9345Z" fill="#FF6600"/>
<path d="M72.4029 22.6876C73.1025 21.6154 73.6022 19.9349 75.2513 20.0019C75.8842 20.5277 76.0952 21.1669 75.8842 21.9143C75.3679 23.7907 74.2352 25.4557 73.1081 27.0588C72.6528 27.0073 71.7478 26.9093 71.298 26.8578C71.3036 25.4041 71.609 23.9608 72.4029 22.6876Z" fill="#FF6600"/>
<path d="M78.3919 33.0862C79.7302 32.3306 81.3216 31.8509 82.9442 31.7647C82.9511 32.1726 82.9581 32.5806 82.9615 32.9885C81.6163 33.4395 80.3023 34.1262 78.8114 34.1175C78.3191 33.8705 78.1804 33.5257 78.3919 33.0862Z" fill="#FF6600"/>
<path d="M57.9906 34.5817C62.0845 33.9154 66.3034 34.045 70.4151 34.4789C70.6518 39.2419 70.4419 44.0138 70.5357 48.7813C74.6296 48.8752 78.728 48.8126 82.8219 48.817C83.4915 48.8349 84.2505 48.7544 84.7639 49.2911C85.5363 49.8501 85.2014 50.9011 85.2907 51.7061C85.2148 54.7026 85.3934 57.7124 85.2014 60.7044C85.0586 60.8654 84.7728 61.1829 84.6344 61.3439C79.9557 61.5631 75.268 61.326 70.5893 61.4647C70.4464 65.5389 70.5535 69.6177 70.5268 73.6964C70.5402 74.6266 70.3125 75.5345 70.0803 76.4334C66.0802 76.3037 62.0398 76.7867 58.0843 76.0488C57.2941 71.3216 57.8879 66.5139 57.6557 61.7509C53.0306 61.7375 48.4009 61.7822 43.7758 61.7151C43.1284 59.6355 43.3516 57.4486 43.3293 55.3108C43.374 53.1507 43.0793 50.928 43.7981 48.8439C48.4991 48.8036 53.2002 48.8618 57.9013 48.7947C58.004 44.0585 57.8611 39.3179 57.9906 34.5817ZM60.483 36.4751C60.3664 40.2045 60.5099 43.9339 60.4247 47.6634C60.2318 48.8039 60.4157 50.302 59.2853 51.0126C54.7728 51.2434 50.2378 51.0216 45.7162 51.1031C45.5906 53.8187 45.6579 56.5343 45.649 59.2499C50.4352 59.3132 55.2258 59.2046 60.012 59.3087C60.3126 63.717 60.0793 68.1344 60.1466 72.5427C60.0658 73.1673 60.2587 73.6742 60.7342 74.0679C63.2372 74.1675 65.7447 74.0906 68.2477 74.0679C68.4495 69.2523 67.9471 64.4004 68.5392 59.6119C73.312 58.924 78.143 59.449 82.9472 59.2227C82.9606 56.6022 82.983 53.9816 82.9113 51.3656C78.0757 50.7365 73.1774 51.3792 68.3239 50.9764C68.1849 46.1426 68.3778 41.3089 68.2118 36.4797C65.6325 36.4661 63.0578 36.4706 60.483 36.4751Z" fill="#FF6600"/>
<path d="M25.8412 48.2353C26.1233 48.2398 26.6846 48.2443 26.9639 48.2443C27.0767 55.3054 26.4646 62.3121 26.253 69.3506C25.9766 71.7164 26.49 74.413 25.5112 76.4706C25.2968 76.3754 24.8709 76.1896 24.6565 76.0944C24.6283 73.2437 24.6283 70.3748 24.9386 67.5604C25.0147 63.7851 25.2037 60.0234 25.3363 56.2572C25.6579 53.6059 25.4717 50.8775 25.8412 48.2353Z" fill="#FF6600"/>
<path d="M45.8204 64.7346C46.323 64.725 46.8257 64.7155 47.3284 64.7059C48.218 68.5269 47.9228 72.549 47.9308 76.4706C47.4082 76.3844 46.8816 76.3413 46.3709 76.1833C45.7087 75.0293 45.948 73.5593 45.8762 72.2426C45.952 69.7335 45.3496 67.2245 45.8204 64.7346Z" fill="#FF6600"/>
</svg>
