<svg width="86" height="86" viewBox="0 0 86 86" fill="none" xmlns="http://www.w3.org/2000/svg">
<g clip-path="url(#clip0)">
<path d="M40.1333 45.8667C37.9289 45.8667 35.9236 46.7066 34.4 48.074V38.7C34.4 36.3293 32.4707 34.4 30.1 34.4H10.0333C7.6626 34.4 5.73333 36.3293 5.73333 38.7V50.4304C5.28327 50.2699 4.80453 50.1667 4.3 50.1667C1.92927 50.1667 0 52.096 0 54.4667C0 55.5718 0.431433 56.5708 1.118 57.3334C0.431433 58.0959 0 59.0949 0 60.2C0 61.3051 0.431433 62.3042 1.118 63.0667C0.431433 63.8292 0 64.8283 0 65.9334C0 67.0385 0.431433 68.0375 1.118 68.8C0.431433 69.5626 0 70.5616 0 71.6667C0 74.0375 1.92927 75.9667 4.3 75.9667C4.80453 75.9667 5.28327 75.8635 5.73333 75.703V75.9667C5.73333 78.3375 7.6626 80.2667 10.0333 80.2667H12.9V86.0001H15.7667V80.2667H30.1C32.4707 80.2667 34.4 78.3375 34.4 75.9667V58.7667V54.4667C34.4 51.8007 36.2289 49.5532 38.7 48.914V86.0001H41.5667V47.3C41.5667 46.5088 40.926 45.8667 40.1333 45.8667ZM4.3 73.1001C3.5088 73.1001 2.86667 72.4565 2.86667 71.6667C2.86667 70.877 3.5088 70.2334 4.3 70.2334C5.0912 70.2334 5.73333 70.877 5.73333 71.6667C5.73333 72.4565 5.0912 73.1001 4.3 73.1001ZM4.3 67.3667C3.5088 67.3667 2.86667 66.7231 2.86667 65.9334C2.86667 65.1436 3.5088 64.5 4.3 64.5C5.0912 64.5 5.73333 65.1436 5.73333 65.9334C5.73333 66.7231 5.0912 67.3667 4.3 67.3667ZM4.3 61.6334C3.5088 61.6334 2.86667 60.9898 2.86667 60.2C2.86667 59.4103 3.5088 58.7667 4.3 58.7667C5.0912 58.7667 5.73333 59.4103 5.73333 60.2C5.73333 60.9898 5.0912 61.6334 4.3 61.6334ZM4.3 55.9C3.5088 55.9 2.86667 55.2565 2.86667 54.4667C2.86667 53.6769 3.5088 53.0334 4.3 53.0334C5.0912 53.0334 5.73333 53.6769 5.73333 54.4667C5.73333 55.2565 5.0912 55.9 4.3 55.9ZM31.5333 75.9667C31.5333 76.7565 30.8912 77.4001 30.1 77.4001H10.0333C9.24213 77.4001 8.6 76.7565 8.6 75.9667V73.1001H31.5333V75.9667ZM31.5333 54.4667V58.7667V70.2334H8.6V44.4334H31.5333V54.4667ZM31.5333 41.5667H8.6V38.7C8.6 37.9103 9.24213 37.2667 10.0333 37.2667H30.1C30.8912 37.2667 31.5333 37.9103 31.5333 38.7V41.5667Z" fill="black"/>
<path d="M61.6333 0C48.1972 0 37.2666 10.9306 37.2666 24.3667C37.2666 37.8027 48.1972 48.7333 61.6333 48.7333C75.0693 48.7333 85.9999 37.8027 85.9999 24.3667C85.9999 10.9306 75.0693 0 61.6333 0ZM61.6333 45.8667C49.7782 45.8667 40.1333 36.2218 40.1333 24.3667C40.1333 12.5116 49.7782 2.86667 61.6333 2.86667C73.4884 2.86667 83.1333 12.5116 83.1333 24.3667C83.1333 36.2218 73.4884 45.8667 61.6333 45.8667Z" fill="black"/>
<path d="M61.6333 5.7334C51.3592 5.7334 43 14.0926 43 24.3667C43 34.6409 51.3592 43.0001 61.6333 43.0001C71.9075 43.0001 80.2667 34.6409 80.2667 24.3667C80.2667 14.0926 71.9075 5.7334 61.6333 5.7334ZM61.6333 40.1334C52.9402 40.1334 45.8667 33.0599 45.8667 24.3667C45.8667 15.6736 52.9402 8.60007 61.6333 8.60007C70.3265 8.60007 77.4 15.6736 77.4 24.3667C77.4 33.0599 70.3265 40.1334 61.6333 40.1334Z" fill="black"/>
<path d="M51.6001 22.9333H48.7334V25.8H51.6001V22.9333Z" fill="black"/>
<path d="M74.5333 22.9333H71.6666V25.8H74.5333V22.9333Z" fill="black"/>
<path d="M22.9334 17.2H20.0668V20.0666H22.9334V17.2Z" fill="black"/>
<path d="M28.6666 17.2H25.7999V20.0666H28.6666V17.2Z" fill="black"/>
<path d="M34.4 17.2H31.5333V20.0666H34.4V17.2Z" fill="black"/>
<path d="M17.2 17.2H14.3334V20.0666H17.2V17.2Z" fill="black"/>
<path d="M17.2 22.9333H14.3334V25.8H17.2V22.9333Z" fill="black"/>
<path d="M17.2 28.6667H14.3334V31.5334H17.2V28.6667Z" fill="black"/>
<path d="M53.0333 71.6667H50.1666V74.5334H53.0333V71.6667Z" fill="black"/>
<path d="M47.3001 71.6667H44.4335V74.5334H47.3001V71.6667Z" fill="black"/>
<path d="M58.7667 71.6667H55.9V74.5334H58.7667V71.6667Z" fill="black"/>
<path d="M64.5 71.6667H61.6333V74.5334H64.5V71.6667Z" fill="black"/>
<path d="M70.2334 71.6667H67.3667V74.5334H70.2334V71.6667Z" fill="black"/>
<path d="M75.9666 71.6667H73.1V74.5334H75.9666V71.6667Z" fill="black"/>
<path d="M75.9666 65.9333H73.1V68.8H75.9666V65.9333Z" fill="black"/>
<path d="M75.9666 60.2H73.1V63.0666H75.9666V60.2Z" fill="black"/>
<path d="M75.9666 54.4667H73.1V57.3334H75.9666V54.4667Z" fill="black"/>
<path d="M75.9666 48.7334H73.1V51.6001H75.9666V48.7334Z" fill="black"/>
<path d="M26.2201 50.5867L18.6334 58.1733L15.3468 54.8867L13.3201 56.9134L17.6201 61.2134C17.8996 61.4929 18.2665 61.6333 18.6334 61.6333C19.0004 61.6333 19.3673 61.4929 19.6468 61.2134L28.2468 52.6134L26.2201 50.5867Z" fill="#FF6600"/>
<path d="M56.0557 19.6742H60.5707V32.1482H63.0907V19.6742H67.6057V17.4482H56.0557V19.6742Z" fill="#FF6600"/>
<line x1="55.7407" y1="15.4259" x2="68.4815" y2="15.4259" stroke="#FF6600"/>
</g>
<defs>
<clipPath id="clip0">
<rect width="86" height="86" fill="white"/>
</clipPath>
</defs>
</svg>
