<?xml version="1.0" encoding="UTF-8"?>
<svg width="129px" height="87px" viewBox="0 0 129 87" version="1.1" xmlns="http://www.w3.org/2000/svg" xmlns:xlink="http://www.w3.org/1999/xlink">
    <!-- Generator: Sketch 58 (84663) - https://sketch.com -->
    <title>Group 3</title>
    <desc>Created with Sketch.</desc>
    <defs>
        <path d="M23.5369,27.2336 C28.5435,25.4511 32.4553,21.3797 32.4553,15.0199 C32.4553,8.6604 28.5435,4.5887 23.5367,2.8066 C21.5765,2.1084 19.4471,1.7595 17.3166,1.7595 C15.1858,1.7595 13.0564,2.1084 11.0963,2.8066 C6.0897,4.5887 2.1779,8.6604 2.1779,15.0199 C2.1779,21.3797 6.0897,25.4511 11.0965,27.2336 C13.0567,27.9315 15.1861,28.2807 17.3166,28.2807 C19.4474,28.2807 21.5765,27.9315 23.5369,27.2336 Z M8.6902,22.9158 L15.1421,22.9158 C18.7093,22.9158 21.0566,21.4724 21.0566,18.5845 C21.0566,16.4183 19.9276,15.3584 18.0995,14.6591 C19.228,14.0272 20.1765,13.0351 20.1765,11.2524 C20.1765,8.2908 17.5967,7.1237 14.9619,7.1237 L8.6902,7.1237 C8.3702,7.1237 8.1108,7.3834 8.1108,7.7034 L8.1108,7.7057 L8.1108,22.3362 L8.1108,22.3364 C8.1108,22.6565 8.3702,22.9158 8.6902,22.9158 Z M11.4974,13.5085 L11.4974,13.5085 L11.4974,10.5171 L11.4974,10.5171 C11.4976,10.3249 11.653,10.1696 11.8452,10.1696 L14.4426,10.1696 C15.9095,10.1696 16.7225,10.7558 16.7225,11.7941 C16.7225,13.0122 15.7513,13.5085 14.2169,13.5085 L11.4974,13.5085 Z M11.4974,19.5225 L11.4974,19.5225 L11.4974,16.3962 L15.0293,16.3962 C16.8123,16.3962 17.6023,17.0504 17.6023,18.1106 C17.6023,19.3289 16.6768,19.87 15.1421,19.87 L11.8452,19.87 C11.653,19.87 11.4974,19.7147 11.4974,19.5225 Z M23.3935,22.9158 L23.3935,22.9158 L25.943,22.9158 C26.263,22.9158 26.5224,22.6565 26.5224,22.3364 L26.5224,22.3362 L26.5224,7.7034 L26.5224,7.7034 C26.5221,7.3831 26.263,7.1237 25.943,7.1237 L23.3935,7.1237 C23.2016,7.1237 23.046,7.2794 23.046,7.4716 L23.046,22.5683 C23.046,22.7602 23.2016,22.9158 23.3935,22.9158 Z M34.0628,15.0202 L34.0628,15.0202 C34.0628,34.6436 0.5706,34.6436 0.5706,15.0202 C0.5706,-4.6032 34.0628,-4.6032 34.0628,15.0202 Z M33.1869,15.0199 L33.1869,15.0199 C33.1869,21.742 29.0611,26.0425 23.7799,27.9227 C21.7395,28.6492 19.5271,29.0123 17.3166,29.0123 C15.1061,29.0123 12.8937,28.6492 10.8533,27.9227 C5.5721,26.0425 1.4463,21.742 1.4463,15.0199 C1.4463,8.2984 5.5721,3.9977 10.8533,2.1175 C12.8934,1.391 15.1061,1.0278 17.3166,1.0278 C19.5271,1.0278 21.7395,1.391 23.7799,2.1175 C29.0611,3.9977 33.1869,8.2984 33.1869,15.0199 L33.1869,15.0199 Z" id="path-1"></path>
        <linearGradient x1="61.6543553%" y1="60.9681572%" x2="9.97067974%" y2="12.2651099%" id="linearGradient-3">
            <stop stop-color="#004377" offset="0%"></stop>
            <stop stop-color="#2E79B1" offset="100%"></stop>
        </linearGradient>
    </defs>
    <g id="Page-1" stroke="none" stroke-width="1" fill="none" fill-rule="evenodd">
        <g id="Group-3">
            <g id="Group-13" transform="translate(0.000000, 57.000000)">
                <g id="Group-9">
                    <mask id="mask-2" fill="white">
                        <use xlink:href="#path-1"></use>
                    </mask>
                    <g id="Clip-8"></g>
                    <path d="M23.5369,27.2336 C28.5435,25.4511 32.4553,21.3797 32.4553,15.0199 C32.4553,8.6604 28.5435,4.5887 23.5367,2.8066 C21.5765,2.1084 19.4471,1.7595 17.3166,1.7595 C15.1858,1.7595 13.0564,2.1084 11.0963,2.8066 C6.0897,4.5887 2.1779,8.6604 2.1779,15.0199 C2.1779,21.3797 6.0897,25.4511 11.0965,27.2336 C13.0567,27.9315 15.1861,28.2807 17.3166,28.2807 C19.4474,28.2807 21.5765,27.9315 23.5369,27.2336 Z M8.6902,22.9158 L15.1421,22.9158 C18.7093,22.9158 21.0566,21.4724 21.0566,18.5845 C21.0566,16.4183 19.9276,15.3584 18.0995,14.6591 C19.228,14.0272 20.1765,13.0351 20.1765,11.2524 C20.1765,8.2908 17.5967,7.1237 14.9619,7.1237 L8.6902,7.1237 C8.3702,7.1237 8.1108,7.3834 8.1108,7.7034 L8.1108,7.7057 L8.1108,22.3362 L8.1108,22.3364 C8.1108,22.6565 8.3702,22.9158 8.6902,22.9158 Z M11.4974,13.5085 L11.4974,13.5085 L11.4974,10.5171 L11.4974,10.5171 C11.4976,10.3249 11.653,10.1696 11.8452,10.1696 L14.4426,10.1696 C15.9095,10.1696 16.7225,10.7558 16.7225,11.7941 C16.7225,13.0122 15.7513,13.5085 14.2169,13.5085 L11.4974,13.5085 Z M11.4974,19.5225 L11.4974,19.5225 L11.4974,16.3962 L15.0293,16.3962 C16.8123,16.3962 17.6023,17.0504 17.6023,18.1106 C17.6023,19.3289 16.6768,19.87 15.1421,19.87 L11.8452,19.87 C11.653,19.87 11.4974,19.7147 11.4974,19.5225 Z M23.3935,22.9158 L23.3935,22.9158 L25.943,22.9158 C26.263,22.9158 26.5224,22.6565 26.5224,22.3364 L26.5224,22.3362 L26.5224,7.7034 L26.5224,7.7034 C26.5221,7.3831 26.263,7.1237 25.943,7.1237 L23.3935,7.1237 C23.2016,7.1237 23.046,7.2794 23.046,7.4716 L23.046,22.5683 C23.046,22.7602 23.2016,22.9158 23.3935,22.9158 Z M34.0628,15.0202 L34.0628,15.0202 C34.0628,34.6436 0.5706,34.6436 0.5706,15.0202 C0.5706,-4.6032 34.0628,-4.6032 34.0628,15.0202 Z M33.1869,15.0199 L33.1869,15.0199 C33.1869,21.742 29.0611,26.0425 23.7799,27.9227 C21.7395,28.6492 19.5271,29.0123 17.3166,29.0123 C15.1061,29.0123 12.8937,28.6492 10.8533,27.9227 C5.5721,26.0425 1.4463,21.742 1.4463,15.0199 C1.4463,8.2984 5.5721,3.9977 10.8533,2.1175 C12.8934,1.391 15.1061,1.0278 17.3166,1.0278 C19.5271,1.0278 21.7395,1.391 23.7799,2.1175 C29.0611,3.9977 33.1869,8.2984 33.1869,15.0199 L33.1869,15.0199 Z" id="Fill-7" fill="url(#linearGradient-3)" mask="url(#mask-2)"></path>
                </g>
                <path d="M69.9324,22.9226 L68.247,22.9226 C68.0599,22.9226 67.9082,22.7707 67.9082,22.5836 L67.9082,7.6484 C67.9082,7.4614 68.0599,7.3094 68.247,7.3094 L69.9324,7.3094 C70.1195,7.3094 70.2715,7.4614 70.2715,7.6484 L70.2715,22.5836 C70.2715,22.7707 70.1195,22.9226 69.9324,22.9226 Z M88.3962,22.9226 L86.7535,22.9226 C86.5664,22.9226 86.4145,22.7707 86.4145,22.5836 L86.4145,7.6484 C86.4145,7.4614 86.5664,7.3094 86.7535,7.3094 L88.3324,7.3094 C88.4328,7.3103 88.532,7.3548 88.5983,7.4392 L97.4024,18.6395 L97.4024,7.6484 C97.4024,7.4614 97.5544,7.3094 97.7414,7.3094 L99.3844,7.3094 C99.5715,7.3094 99.7231,7.4614 99.7231,7.6484 L99.7231,22.5836 C99.7231,22.7707 99.5715,22.9226 99.3844,22.9226 L98.0402,22.9226 C97.9399,22.9218 97.8407,22.8773 97.7743,22.7928 L88.7352,11.3139 L88.7352,22.5836 C88.7352,22.7707 88.5833,22.9226 88.3962,22.9226 Z M42.2731,22.9158 L40.5715,22.9158 C40.3759,22.9158 40.2171,22.7571 40.2171,22.5615 L40.2171,7.6708 C40.2171,7.4752 40.3759,7.3165 40.5715,7.3165 L51.3355,7.3165 C51.5311,7.3165 51.6898,7.4752 51.6898,7.6708 L51.6898,9.2024 C51.6898,9.398 51.5311,9.5567 51.3355,9.5567 L42.6065,9.5567 L42.6065,13.9323 L50.3782,13.9323 C50.5738,13.9323 50.7325,14.091 50.7325,14.2866 L50.7325,15.8182 C50.7325,16.0138 50.5738,16.1725 50.3782,16.1725 L42.6065,16.1725 C42.6065,18.8133 42.6274,20.327 42.6274,22.5615 C42.6274,22.7571 42.4687,22.9158 42.2731,22.9158 Z M83.7363,22.9158 L72.866,22.9158 C72.6704,22.9158 72.5117,22.7571 72.5117,22.5615 L72.5117,7.6708 C72.5117,7.4752 72.6704,7.3165 72.866,7.3165 L83.63,7.3165 C83.8256,7.3165 83.9843,7.4752 83.9843,7.6708 L83.9843,9.2024 C83.9843,9.398 83.8256,9.5567 83.63,9.5567 L74.901,9.5567 L74.901,13.9323 L82.6728,13.9323 C82.8683,13.9323 83.0271,14.091 83.0271,14.2866 L83.0271,15.8182 C83.0271,16.0138 82.8683,16.1725 82.6728,16.1725 L74.901,16.1725 L74.901,20.6756 L83.7363,20.6756 C83.9319,20.6756 84.0906,20.8344 84.0906,21.03 L84.0906,22.5615 C84.0906,22.7571 83.9319,22.9158 83.7363,22.9158 Z M55.0775,22.9226 L53.392,22.9226 C53.2049,22.9226 53.0533,22.7707 53.0533,22.5836 L53.0533,7.6484 C53.0533,7.4614 53.2049,7.3094 53.392,7.3094 L59.8139,7.3094 C62.8297,7.3094 65.5509,8.8421 65.5509,12.1289 C65.5509,14.5536 64.0103,16.1178 61.7443,16.6992 L65.9977,22.3577 C66.1907,22.572 66.0408,22.9226 65.7454,22.9226 L63.6758,22.9226 C63.5726,22.9221 63.4709,22.8753 63.4045,22.7863 L59.1747,17.119 L55.4165,17.119 L55.4165,22.5836 C55.4165,22.7707 55.2646,22.9226 55.0775,22.9226 Z M55.6246,9.5448 C55.5095,9.5448 55.4165,9.6381 55.4165,9.7529 L55.4165,14.9264 L59.6648,14.9264 C61.4172,14.9264 63.1661,14.1341 63.1661,12.1504 C63.1661,10.1602 61.3902,9.5448 59.6858,9.5448 L55.6246,9.5448 Z" id="Fill-10" fill="#034986"></path>
                <path d="M107.7483,22.9226 L102.5791,22.9226 C102.3835,22.9226 102.2247,22.7639 102.2247,22.5683 L102.2247,7.6776 C102.2247,7.482 102.3835,7.3233 102.5791,7.3233 L107.7483,7.3233 C112.3178,7.3233 116.0158,10.4114 116.0158,15.1231 C116.0158,19.8122 112.2962,22.9226 107.7483,22.9226 Z M104.8221,9.5848 C104.707,9.5848 104.614,9.6778 104.614,9.7929 L104.614,20.6612 L107.7483,20.6612 C111.0549,20.6612 113.563,18.5196 113.563,15.1231 C113.563,11.7485 111.0328,9.5848 107.7483,9.5848 L104.8221,9.5848 Z" id="Fill-11" fill="#034986"></path>
                <path d="M123.1574,22.9226 C120.6913,22.9226 118.6776,22.0904 116.8441,20.4579 C116.6967,20.3389 116.674,20.1206 116.7974,19.9755 L117.8507,18.7299 C117.9757,18.5919 118.1894,18.5811 118.3275,18.7061 C119.797,20.035 121.2123,20.7298 123.2215,20.7298 C124.6088,20.7298 126.2109,20.1022 126.2109,18.487 C126.2109,16.666 124.0489,16.2876 122.616,15.9843 C119.9756,15.4848 117.3141,14.4244 117.3141,11.2966 C117.3141,8.4365 119.9464,6.8825 122.5599,6.8825 C124.6845,6.8825 126.3504,7.4563 128.0084,8.7834 C128.1614,8.8929 128.1912,9.1111 128.0787,9.2602 L127.0894,10.5712 C126.9717,10.7158 126.7589,10.7379 126.614,10.6203 C125.4002,9.6301 124.0969,9.0754 122.5174,9.0754 C121.2262,9.0754 119.6774,9.6792 119.6774,11.19 C119.6774,13.0533 121.9986,13.4467 123.4531,13.7588 C126.0051,14.2415 128.5957,15.3927 128.5957,18.3591 C128.5957,21.4067 125.9326,22.9226 123.1574,22.9226" id="Fill-12" fill="#034986"></path>
            </g>
            <g id="Group-26" transform="translate(27.000000, 0.000000)">
                <path d="M69.4355,36.1186 C67.9714,33.6692 66.1213,31.7518 64.1679,30.307 L69.1197,30.307 C70.7386,30.307 72.0564,31.6248 72.0564,33.2448 C72.0564,34.7529 70.8993,35.9533 69.4355,36.1186 Z M5.7374,36.12 C4.2701,35.9579 3.1099,34.7554 3.1099,33.2448 C3.1099,31.6248 4.4277,30.307 6.0466,30.307 L11.0101,30.307 C9.053,31.7538 7.2012,33.6697 5.7374,36.12 Z M74.9866,33.2448 C74.9866,30.0099 72.3535,27.3791 69.1197,27.3791 L64.5699,27.3791 C67.4992,24.4997 69.2561,20.5382 69.2561,16.2931 C69.2561,7.7004 62.265,0.7107 53.6726,0.7107 C45.08,0.7107 38.0889,7.7004 38.0889,16.2931 C38.0889,20.5232 39.8152,24.49 42.7456,27.3791 L32.5676,27.3791 C35.4952,24.4982 37.2025,20.5397 37.2025,16.2931 C37.2025,7.7004 30.2114,0.7107 21.619,0.7107 C13.0266,0.7107 6.0356,7.7004 6.0356,16.2931 C6.0356,20.5323 7.7945,24.4968 10.7238,27.3791 L6.0466,27.3791 C2.8129,27.3791 0.1797,30.0099 0.1797,33.2448 C0.1797,35.9003 1.9659,38.123 4.3903,38.843 C3.6352,40.7303 3.0836,42.8517 2.8851,45.3077 C2.8194,46.1138 3.42,46.8197 4.2254,46.8846 C5.0519,46.9421 5.7385,46.3488 5.8023,45.5426 C6.5064,36.8556 11.9727,32.5583 16.4387,30.4839 C16.9577,30.2432 17.2877,29.7208 17.2857,29.149 C17.2812,28.5759 16.9441,28.0577 16.4231,27.8221 C11.8917,25.7752 8.9654,21.2503 8.9654,16.2931 C8.9654,9.3153 14.641,3.6384 21.619,3.6384 C28.5965,3.6384 34.272,9.3153 34.272,16.2931 C34.272,21.0448 31.6415,25.3526 27.4043,27.5387 C26.8543,27.8221 26.5507,28.422 26.6324,29.034 C26.714,29.6479 27.1803,30.1454 27.7849,30.275 C27.8842,30.2959 27.9873,30.307 28.0905,30.307 L42.5075,30.307 L36.3773,35.1551 C35.4603,35.925 34.9322,37.056 34.9322,38.2579 L34.9322,45.4253 C34.9322,45.4888 34.964,45.7986 34.9835,45.861 C35.0147,45.9582 35.2052,46.2468 35.2772,46.3352 C35.3435,46.4174 35.4152,46.4863 35.4977,46.5523 C35.5354,46.5824 35.5575,46.6249 35.5989,46.6516 C35.6457,46.6822 35.6976,46.6946 35.746,46.7196 C35.7948,46.7443 35.841,46.7683 35.8923,46.7873 C36.0573,46.8483 36.226,46.8891 36.3949,46.8891 L36.396,46.8885 C36.396,46.8885 36.3969,46.8891 36.3974,46.8891 C36.6271,46.8891 36.8377,46.8256 37.031,46.7315 C37.0854,46.7054 37.1277,46.6652 37.179,46.6317 C37.319,46.5413 37.4389,46.4339 37.5401,46.302 C37.5642,46.2709 37.603,46.2584 37.6246,46.2249 C37.7955,45.9911 37.8664,45.7215 37.8624,45.4247 L37.8624,38.2579 C37.8624,37.9251 38.0078,37.6116 38.2272,37.4256 L47.8208,29.8373 C48.206,29.5326 48.4127,29.0552 48.3707,28.566 C48.329,28.0753 48.0456,27.6399 47.6144,27.404 C43.5467,25.1814 41.0191,20.9235 41.0191,16.2931 C41.0191,9.3153 46.6946,3.6384 53.6726,3.6384 C60.6501,3.6384 66.3256,9.3153 66.3256,16.2931 C66.3256,21.2775 63.3776,25.8129 58.8158,27.8462 C58.292,28.0798 57.9532,28.5974 57.9467,29.1706 C57.9422,29.7435 58.2724,30.2673 58.7914,30.5105 C63.2308,32.5869 68.671,36.8811 69.3726,45.5426 C69.4338,46.3094 70.0745,46.8891 70.8288,46.8891 C70.8684,46.8891 70.9078,46.8883 70.9495,46.8846 C71.7546,46.8197 72.3555,46.1127 72.2894,45.3077 C72.091,42.8509 71.5383,40.7289 70.7823,38.841 C73.2033,38.119 74.9866,35.8978 74.9866,33.2448 L74.9866,33.2448 Z" id="Fill-20" fill="#E7792B"></path>
                <path d="M59.7991,20.7814 C59.3989,20.3066 58.686,20.2483 58.2129,20.6465 C55.6702,22.7912 51.6751,22.7912 49.1321,20.6465 C48.6593,20.2483 47.9489,20.3066 47.5458,20.7814 C47.1436,21.2568 47.2051,21.9675 47.6802,22.3686 C49.3566,23.7836 51.4837,24.562 53.6726,24.562 C55.8613,24.562 57.9884,23.7836 59.6648,22.3686 C60.1402,21.9675 60.2014,21.2568 59.7991,20.7814" id="Fill-21" fill="#E7792B"></path>
                <path d="M27.7455,20.7814 C27.3453,20.3066 26.6324,20.2483 26.1596,20.6465 C23.6166,22.7912 19.6214,22.7912 17.0788,20.6465 C16.6077,20.2483 15.8953,20.3066 15.4925,20.7814 C15.0903,21.2568 15.1515,21.9675 15.6269,22.3686 C17.3027,23.7836 19.4301,24.562 21.619,24.562 C23.8079,24.562 25.9348,23.7836 27.6112,22.3686 C28.0866,21.9675 28.1481,21.2568 27.7455,20.7814" id="Fill-22" fill="#004275"></path>
                <path d="M5.7374,36.12 C4.2701,35.9576 3.1099,34.7554 3.1099,33.2448 C3.1099,31.6248 4.4277,30.3073 6.0466,30.3073 L11.0101,30.3073 C9.053,31.7535 7.2012,33.6697 5.7374,36.12 Z M38.0291,27.3791 L37.5061,27.3791 L32.5676,27.3791 C35.4952,24.4982 37.2028,20.5399 37.2028,16.2931 C37.2028,7.7004 30.2117,0.7107 21.619,0.7107 C13.0266,0.7107 6.0353,7.7004 6.0353,16.2931 C6.0353,20.5323 7.7945,24.4968 10.7238,27.3791 L6.0466,27.3791 C2.8129,27.3791 0.1797,30.0099 0.1797,33.2448 C0.1797,35.9003 1.9659,38.1232 4.3903,38.843 C3.6349,40.7303 3.0836,42.8517 2.8854,45.3074 C2.8194,46.1135 3.42,46.8197 4.2254,46.8846 C5.0519,46.9418 5.7385,46.3491 5.8023,45.5426 C6.5064,36.8556 11.9727,32.5583 16.4387,30.4839 C16.9577,30.2432 17.2877,29.7208 17.2857,29.1488 C17.2812,28.5759 16.9444,28.0577 16.4231,27.8221 C11.8917,25.7752 8.9654,21.2503 8.9654,16.2931 C8.9654,9.3156 14.641,3.6384 21.619,3.6384 C28.5965,3.6384 34.272,9.3156 34.272,16.2931 C34.272,21.0451 31.6418,25.3529 27.4043,27.5384 C26.8543,27.8221 26.5507,28.4217 26.6324,29.034 C26.714,29.6479 27.1803,30.1454 27.7849,30.275 C27.8842,30.2959 27.9876,30.3073 28.0905,30.3073 L37.2249,30.3073 L37.791,30.3073 L42.5075,30.3073 C42.7062,30.1511 42.9049,29.9949 43.1042,29.8373 C43.4894,29.5326 43.6961,29.0552 43.6541,28.5657 C43.6125,28.0753 43.3287,27.6396 42.8979,27.404 L42.8531,27.3791 L38.0291,27.3791 Z" id="Fill-23" fill="#004275"></path>
                <path d="M64.1679,30.3073 L69.1197,30.3073 C70.7386,30.3073 72.0564,31.6248 72.0564,33.2448 C72.0564,34.7529 70.8993,35.9533 69.4355,36.1183 L70.7823,38.841 C73.2036,38.119 74.9866,35.8978 74.9866,33.2448 C74.9866,30.0099 72.3535,27.3791 69.1197,27.3791 L64.5696,27.3791 L62.5437,29.1689 L64.1679,30.3073 Z" id="Fill-24" fill="#004275"></path>
                <path d="M11.0047,30.3073 L6.0529,30.3073 C4.434,30.3073 3.1162,31.6248 3.1162,33.2448 C3.1162,34.7529 4.2733,35.9533 5.7371,36.1183 L4.3903,38.841 C1.969,38.119 0.186,35.8978 0.186,33.2448 C0.186,30.0099 2.8191,27.3791 6.0529,27.3791 L10.603,27.3791 L12.6289,29.1689 L11.0047,30.3073 Z" id="Fill-25" fill="#E7792B"></path>
            </g>
        </g>
    </g>
</svg>