<svg width="86" height="86" viewBox="0 0 86 86" fill="none" xmlns="http://www.w3.org/2000/svg">
<g clip-path="url(#clip0)">
<path d="M84.3203 22.5162H76.3453C75.4176 22.5162 74.6656 23.2682 74.6656 24.1959C74.6656 25.1236 75.4176 25.8756 76.3453 25.8756H84.3203C85.248 25.8756 86 25.1236 86 24.1959C86 23.2682 85.248 22.5162 84.3203 22.5162Z" fill="#FF6600"/>
<path d="M73.0469 12.7534C73.4119 12.7534 73.7796 12.6348 74.0882 12.3907L80.7063 7.1533C81.4338 6.57751 81.5567 5.52115 80.9811 4.79385C80.4055 4.06637 79.3489 3.94325 78.6216 4.51905L72.0035 9.75648C71.276 10.3321 71.1531 11.3885 71.7287 12.1159C72.0601 12.5349 72.5511 12.7534 73.0469 12.7534Z" fill="#FF6600"/>
<path d="M80.706 41.2434L74.0879 36.0058C73.3604 35.43 72.3039 35.5531 71.7285 36.2806C71.1527 37.0081 71.2758 38.0644 72.0033 38.6401L78.6214 43.8777C78.9298 44.1219 79.2975 44.2403 79.6626 44.2403C80.1585 44.2403 80.6494 44.0218 80.9808 43.6029C81.5566 42.8756 81.4335 41.8192 80.706 41.2434Z" fill="#FF6600"/>
<path d="M5.79807 25.8756H13.7684C14.696 25.8756 15.448 25.1236 15.448 24.1959C15.448 23.2682 14.696 22.5162 13.7684 22.5162H5.79807C4.87037 22.5162 4.11838 23.2682 4.11838 24.1959C4.11838 25.1236 4.87037 25.8756 5.79807 25.8756Z" fill="#FF6600"/>
<path d="M9.4123 7.1533L16.0303 12.3907C16.3388 12.635 16.7063 12.7534 17.0715 12.7534C17.5674 12.7534 18.0583 12.5349 18.3897 12.1159C18.9655 11.3885 18.8424 10.3321 18.1149 9.75648L11.497 4.51905C10.7693 3.94325 9.71314 4.06637 9.13751 4.79385C8.56188 5.52115 8.68483 6.57767 9.4123 7.1533V7.1533Z" fill="#FF6600"/>
<path d="M16.0305 36.006L9.41255 41.2436C8.68508 41.8192 8.56212 42.8756 9.13775 43.6031C9.46932 44.022 9.96013 44.2405 10.456 44.2405C10.821 44.2405 11.1887 44.1219 11.4972 43.8778L18.1152 38.6402C18.8427 38.0646 18.9656 37.0083 18.39 36.2808C17.8144 35.5533 16.758 35.4302 16.0305 36.006V36.006Z" fill="#FF6600"/>
<path d="M26.6083 31.2217L27.9129 32.4835C28.239 32.7989 28.6601 32.9558 29.0805 32.9558C29.5197 32.9558 29.9585 32.7845 30.288 32.4439C30.933 31.777 30.9152 30.7136 30.2484 30.0688L28.9649 28.8275C25.0605 24.7668 25.0672 18.1734 28.9846 14.1161C32.0907 10.8978 37.6019 11.0681 41.27 14.4959L41.424 14.64C42.4747 15.6235 43.1687 16.2733 44.2523 16.2733C45.3358 16.2733 46.0299 15.6236 47.0805 14.64L47.2352 14.4952C50.9006 11.0658 56.4117 10.8956 59.52 14.1163C62.9215 17.6399 63.3727 23.3149 60.6902 27.3813C59.1746 27.429 57.6377 27.9878 56.3742 29.0547C53.6659 26.7702 49.7143 26.8142 47.4042 29.213C44.6356 32.0743 44.6356 36.7297 47.4042 39.5911C47.4176 39.6049 47.4311 39.6183 47.4449 39.6317L47.8937 40.0648L44.2496 43.583L41.1025 40.547C40.4347 39.9028 39.3714 39.9218 38.7274 40.5897C38.0834 41.2573 38.1024 42.3206 38.7701 42.9647L43.0839 47.1262C43.4092 47.4401 43.8297 47.597 44.2501 47.597C44.6707 47.597 45.0913 47.4398 45.4168 47.1257L50.3126 42.399L55.2106 47.126C55.5361 47.4401 55.9563 47.597 56.3769 47.597C56.7974 47.597 57.2179 47.4399 57.5433 47.126L65.3088 39.6316C65.3229 39.6178 65.337 39.6039 65.3508 39.5896C68.1124 36.7291 68.1124 32.0748 65.3508 29.2141C64.9726 28.8224 64.5499 28.4947 64.0969 28.2283C65.3156 25.991 65.9108 23.4264 65.7892 20.8123C65.6305 17.3987 64.2624 14.192 61.937 11.7832C59.7277 9.49394 56.7003 8.30791 53.4072 8.44178C50.2924 8.56927 47.2854 9.84785 44.9408 12.0414L44.7846 12.1875C44.6062 12.3544 44.4164 12.5322 44.2521 12.68C44.0878 12.5322 43.898 12.3544 43.7196 12.1875L43.5634 12.0414C41.2159 9.84751 38.2084 8.56927 35.0951 8.44178C31.8051 8.30623 28.7765 9.49377 26.5673 11.7828C21.4011 17.1335 21.4015 25.8358 26.5678 31.1816C26.5813 31.1952 26.5947 31.2086 26.6083 31.2217V31.2217ZM62.9526 37.2367L56.3768 43.5829L49.8003 37.236C48.3218 35.6873 48.3279 33.0892 49.8211 31.5461C51.0844 30.2341 53.162 30.6355 54.366 31.7631L54.4392 31.8311C54.9927 32.3471 55.5156 32.8345 56.3744 32.8345C57.2334 32.8345 57.7563 32.3471 58.3097 31.8311L58.3868 31.7594C59.5868 30.6353 61.6664 30.2349 62.9339 31.5477C64.4215 33.0883 64.4275 35.6872 62.9526 37.2367Z" fill="#FF6600"/>
<path d="M66.6886 54.2697L53.7791 60.9004C52.6747 59.7717 51.1357 59.0692 49.4349 59.0692H40.5695C40.1014 59.0692 39.9767 59.0348 39.9678 59.0331C39.8961 58.9928 39.6762 58.7854 39.4997 58.6189L39.4167 58.5406C32.2312 51.7735 26.1551 52.201 19.239 54.9263C18.1458 55.3598 18.125 55.3607 17.0377 55.4085L15.0329 55.4109C14.4446 53.6887 12.8116 52.4464 10.8928 52.4464H4.37458C1.96238 52.4462 0 54.4086 0 56.8208V73.9284C0 76.3406 1.96238 78.303 4.37458 78.303H10.8926C12.8122 78.303 14.4456 77.0597 15.0332 75.3367H18.6677C18.9828 75.3367 18.9828 75.3367 19.3443 75.4386C19.4829 75.4776 19.6522 75.5255 19.8715 75.5844L36.7408 80.0971C37.4851 80.2983 38.1677 80.4963 38.828 80.6878C40.9934 81.3159 42.8134 81.844 44.7109 81.8438C46.8574 81.8438 49.103 81.1679 52.0572 79.1966C52.0713 79.1872 52.0853 79.1775 52.0992 79.1677L72.8984 64.3582C75.5965 62.431 76.3856 58.9517 74.7313 56.2608C73.0926 53.6119 69.6348 52.7558 66.6886 54.2697ZM11.9078 73.9283C11.9078 74.4881 11.4524 74.9435 10.8926 74.9435H4.37458C3.82431 74.9435 3.35938 74.4785 3.35938 73.9283V56.8207C3.35938 56.2704 3.82431 55.8054 4.37458 55.8054H10.8926C11.4524 55.8054 11.9078 56.2608 11.9078 56.8207V73.9283ZM70.9478 61.6232L50.1721 76.4159C45.9203 79.2475 44.1155 78.7234 39.7639 77.4613C39.0894 77.2656 38.3918 77.0632 37.6136 76.8528L20.742 72.3394C20.5411 72.2855 20.3845 72.2414 20.2564 72.2052C19.6421 72.0319 19.4123 71.9771 18.6679 71.9771H15.2672V58.7718H16.9821C17.007 58.7718 17.0319 58.7713 17.0566 58.7701L17.1847 58.7644C18.511 58.7061 18.9222 58.6655 20.4737 58.0502C26.5115 55.6711 31.1698 55.3887 37.1134 60.9861L37.194 61.0622C38.201 62.0121 38.8245 62.4285 40.5692 62.4285H49.4345C50.4425 62.4285 51.3223 62.9801 51.792 63.7956C51.7938 63.7991 51.795 63.8029 51.7969 63.8065C51.8103 63.8327 51.8261 63.8569 51.8407 63.8821C52.0401 64.2593 52.1541 64.6881 52.1541 65.1435C52.1541 66.6433 50.934 67.8633 49.4345 67.8633H35.0699C34.1422 67.8633 33.3902 68.6152 33.3902 69.5429C33.3902 70.4706 34.1422 71.2226 35.0699 71.2226H49.4345C52.7865 71.2226 55.5135 68.4955 55.5135 65.1435C55.5135 64.7021 55.465 64.2719 55.3749 63.8569L68.2232 57.2577C69.4201 56.6428 71.0585 56.7098 71.8715 58.0241C72.5877 59.1883 72.1894 60.7363 70.9478 61.6232V61.6232Z" fill="black"/>
<path d="M33.7469 35.0164C32.9201 35.4368 32.5907 36.4482 33.0113 37.2751L33.0162 37.2847C33.312 37.8663 33.8989 38.1994 34.5089 38.1994C34.7659 38.1994 35.0271 38.1401 35.2724 38.0155C36.0993 37.5951 36.4261 36.579 36.0057 35.7521C35.5849 34.925 34.5738 34.596 33.7469 35.0164V35.0164Z" fill="black"/>
</g>
<defs>
<clipPath id="clip0">
<rect width="86" height="86" fill="white"/>
</clipPath>
</defs>
</svg>
