<svg width="86" height="86" viewBox="0 0 86 86" fill="none" xmlns="http://www.w3.org/2000/svg">
<path d="M80.9608 48.207C80.9608 44.0392 77.57 40.6484 73.4022 40.6484H62.1763C63.5671 36.8881 64.4297 32.4217 64.9339 29.0383C65.4432 25.6228 64.4436 22.1655 62.1915 19.5526C59.9461 16.9474 56.6855 15.4531 53.246 15.4531C51.8545 15.4531 50.7264 16.5812 50.7264 17.9727C50.7264 24.0593 47.2285 33.2479 43.1463 35.2946C38.5514 37.598 29.512 40.1506 27.7115 40.6484C26.5875 40.6484 3.60598 40.6484 2.51956 40.6484C1.12811 40.6484 3.05363e-05 41.7765 3.05363e-05 43.168V78.4414C-0.000137432 79.8329 1.12794 80.9609 2.51939 80.9609H10.078V83.4805C10.078 84.8719 11.2061 86 12.5975 86H23.0116C26.0889 86 28.7407 84.1505 29.9188 81.5055L47.5958 85.9248C47.7957 85.9746 48.001 86 48.2069 86H63.3241C67.4919 86 70.8827 82.6092 70.8827 78.4414C70.8827 77.4585 70.694 76.5188 70.3512 75.6567C73.5574 74.7815 75.9217 71.8433 75.9217 68.3633C75.9217 67.3803 75.7331 66.4407 75.3903 65.5785C78.5965 64.7034 80.9608 61.7651 80.9608 58.2852C80.9608 56.351 80.2306 54.5843 79.0315 53.2461C80.2306 51.9079 80.9608 50.1412 80.9608 48.207ZM10.0778 75.9219H5.03876V45.6875H10.0778V75.9219ZM25.5309 78.4414C25.5309 79.8307 24.4007 80.9609 23.0114 80.9609H15.1169V45.6875H25.5309V78.4414ZM58.285 55.7656H73.4022C74.7915 55.7656 75.9217 56.8959 75.9217 58.2852C75.9217 59.6744 74.7915 60.8047 73.4022 60.8047C71.5025 60.8047 59.8377 60.8047 58.285 60.8047C56.8936 60.8047 55.7655 61.9328 55.7655 63.3242C55.7655 64.7157 56.8936 65.8438 58.285 65.8438H68.3631C69.7524 65.8438 70.8827 66.974 70.8827 68.3633C70.8827 69.7526 69.7524 70.8828 68.3631 70.8828C67.295 70.8828 59.3531 70.8828 58.285 70.8828C56.8936 70.8828 55.7655 72.0109 55.7655 73.4023C55.7655 74.7938 56.8936 75.9219 58.285 75.9219H63.3241C64.7133 75.9219 65.8436 77.0521 65.8436 78.4414C65.8436 79.8307 64.7133 80.9609 63.3241 80.9609H48.5171L30.5702 76.4743V45.0788C33.9695 44.1027 41.1799 41.9173 45.4045 39.7994C51.191 36.8984 54.7343 27.7226 55.5725 20.9039C56.6443 21.2959 57.6118 21.9574 58.3749 22.8426C59.6689 24.3437 60.243 26.3311 59.9501 28.2952C58.7567 36.2996 57.2596 39.5852 56.0316 42.0411C55.641 42.8221 55.6827 43.7496 56.1417 44.4924C56.6008 45.2352 57.4117 45.6875 58.285 45.6875H73.4022C74.7915 45.6875 75.9217 46.8178 75.9217 48.207C75.9217 49.5963 74.7915 50.7266 73.4022 50.7266H58.285C56.8936 50.7266 55.7655 51.8546 55.7655 53.2461C55.7655 54.6375 56.8936 55.7656 58.285 55.7656Z" fill="black"/>
<path d="M55.7656 0C54.3742 0 53.2461 1.12808 53.2461 2.51953V7.89453C53.2461 9.28598 54.3742 10.4141 55.7656 10.4141C57.1571 10.4141 58.2852 9.28598 58.2852 7.89453V2.51953C58.2852 1.12808 57.1571 0 55.7656 0Z" fill="#FF6600"/>
<path d="M41.5129 12.7545L37.9498 9.1914C36.966 8.20744 35.3706 8.20744 34.3867 9.1914C33.4027 10.1754 33.4027 11.7706 34.3867 12.7545L37.9498 16.3176C38.9336 17.3016 40.5291 17.3016 41.5129 16.3176C42.4969 15.3337 42.4969 13.7385 41.5129 12.7545Z" fill="#FF6600"/>
<path d="M33.0898 28.0508H28.0507C26.6593 28.0508 25.5312 29.1789 25.5312 30.5703C25.5312 31.9618 26.6593 33.0898 28.0507 33.0898H33.0898C34.4812 33.0898 35.6093 31.9618 35.6093 30.5703C35.6093 29.1789 34.4812 28.0508 33.0898 28.0508Z" fill="#FF6600"/>
<path d="M83.4805 28.0508H78.4414C77.05 28.0508 75.9219 29.1789 75.9219 30.5703C75.9219 31.9618 77.05 33.0898 78.4414 33.0898H83.4805C84.8719 33.0898 86 31.9618 86 30.5703C86 29.1789 84.8719 28.0508 83.4805 28.0508Z" fill="#FF6600"/>
<path d="M77.1446 9.1914C76.1608 8.20744 74.5654 8.20744 73.5815 9.1914L70.0184 12.7545C69.0344 13.7385 69.0344 15.3337 70.0184 16.3176C71.0022 17.3016 72.5977 17.3016 73.5815 16.3176L77.1446 12.7545C78.1286 11.7706 78.1286 10.1754 77.1446 9.1914Z" fill="#FF6600"/>
</svg>
