<svg width="20" height="34" viewBox="0 0 20 34" fill="none" xmlns="http://www.w3.org/2000/svg">
<path d="M16.1538 0H3.84615C1.72308 0 0 1.73091 0 3.86364V30.1364C0 32.2691 1.72308 34 3.84615 34H16.1538C18.2769 34 20 32.2691 20 30.1364V3.86364C20 1.73091 18.2769 0 16.1538 0ZM10 32.4545C8.72308 32.4545 7.69231 31.4191 7.69231 30.1364C7.69231 28.8536 8.72308 27.8182 10 27.8182C11.2769 27.8182 12.3077 28.8536 12.3077 30.1364C12.3077 31.4191 11.2769 32.4545 10 32.4545ZM16.9231 26.2727H3.07692V4.63636H16.9231V26.2727Z" fill="black"/>
</svg>
