<svg width="86" height="86" viewBox="0 0 86 86" fill="none" xmlns="http://www.w3.org/2000/svg">
<path d="M26.1004 38.5337L26.0972 38.5908C25.8843 42.4587 27.9734 46.0821 31.4208 47.8193L31.4561 47.8372C32.6715 48.4402 33.6677 49.4343 34.2962 50.6703L34.3104 50.6972C36.0474 54.1276 39.6402 56.207 43.4702 55.9984L43.5284 55.9951C44.9174 55.9145 46.2962 56.286 47.4715 57.0585C50.7147 59.1623 54.8314 59.1623 58.0746 57.0585C59.2499 56.286 60.6287 55.9145 62.0177 55.9951L62.0759 55.9984C65.8996 56.2086 69.4971 54.1276 71.2381 50.6915L71.2467 50.6728C71.8776 49.4335 72.8762 48.4378 74.0955 47.834L74.1238 47.8193C77.5712 46.0813 79.661 42.4587 79.4473 38.5899L79.4441 38.5362C79.3734 37.1738 79.738 35.8253 80.4828 34.7C82.6268 31.4571 82.6268 27.1809 80.4836 23.9372C79.7396 22.8127 79.3734 21.465 79.4441 20.1027L79.4473 20.0456C79.661 16.1769 77.5712 12.5542 74.1206 10.8154L74.0892 10.7991C72.8762 10.1978 71.8823 9.20861 71.253 7.97579L71.2349 7.93913C69.4971 4.50877 65.8996 2.43018 62.0759 2.63796L62.017 2.64122C60.6287 2.72188 59.2499 2.35033 58.0754 1.57788H58.0738C54.8307 -0.525962 50.7139 -0.525962 47.4707 1.57788C46.2954 2.34951 44.9166 2.72107 43.5276 2.6404L43.4694 2.63714C39.6449 2.42692 36.0482 4.50795 34.3112 7.9375L34.2978 7.96276C33.6685 9.20127 32.6715 10.1962 31.4546 10.7999L31.4216 10.8162C27.9742 12.5534 25.8843 16.1769 26.098 20.0456L26.1012 20.0994C26.1719 21.4618 25.8073 22.8103 25.0625 23.9347C22.9185 27.1785 22.9185 31.4554 25.0625 34.6984C25.8066 35.8228 26.1719 37.1713 26.1004 38.5337ZM27.711 25.83C28.8604 24.0944 29.4237 22.0134 29.3137 19.9112L29.3105 19.8541C29.1974 17.2907 30.5849 14.9098 32.8247 13.8204L32.8522 13.8066C34.6898 12.894 36.1944 11.3915 37.1434 9.52231L37.1591 9.49135C38.3132 7.2115 40.7307 5.82958 43.2982 5.97135L43.3547 5.9738C45.4092 6.09358 47.4479 5.54439 49.1858 4.40203C51.3801 2.97855 54.1644 2.97855 56.3587 4.40203C58.0966 5.54276 60.1353 6.09276 62.189 5.97461L62.2456 5.97135C64.8256 5.83121 67.2313 7.2115 68.3823 9.48483L68.4035 9.52638C69.3525 11.3931 70.8555 12.8932 72.6907 13.805L72.7175 13.8188C74.9927 14.9661 76.3738 17.3347 76.2348 19.8549L76.2316 19.9144C76.1217 22.0166 76.6858 24.0969 77.8352 25.8324C79.2242 27.9338 79.2234 30.7042 77.8336 32.8048C76.685 34.5411 76.1217 36.6222 76.2316 38.7244L76.2348 38.7806C76.3738 41.3008 74.9927 43.6703 72.7167 44.8184L72.6931 44.8298C70.8539 45.744 69.3478 47.2481 68.398 49.1206L68.3862 49.145C67.2313 51.4249 64.8178 52.8076 62.2464 52.665L62.1906 52.6617C60.1361 52.5428 58.0966 53.0928 56.358 54.2343C54.1644 55.657 51.3801 55.657 49.1866 54.2343C47.6059 53.1955 45.7722 52.6446 43.9008 52.6463C43.7193 52.6463 43.537 52.6512 43.3547 52.6617L43.2982 52.6642C40.7645 52.8312 38.3675 51.4558 37.1568 49.1409L37.1403 49.1092C36.1928 47.2432 34.6906 45.744 32.8562 44.8322L32.8263 44.8167C30.5503 43.6695 29.1691 41.3 29.309 38.7806L29.3121 38.7211C29.4213 36.6189 28.8572 34.5379 27.7086 32.8031C26.3204 30.7017 26.3212 27.9314 27.711 25.8316V25.83Z" fill="#FF6600"/>
<path d="M43.7971 42.7739C44.59 43.2097 45.6342 42.9965 46.1295 42.2987L66.1885 14.0193C66.5159 13.5674 66.5432 12.9955 66.2588 12.5219C65.9744 12.0474 65.4221 11.7448 64.8135 11.728C64.205 11.7113 63.6329 11.9834 63.3154 12.4411L43.2572 40.7205C42.7619 41.419 43.0034 42.338 43.7971 42.7739Z" fill="#FF6600"/>
<path d="M44.9541 27.3637C48.1873 27.3637 50.8181 23.8561 50.8181 19.5451C50.8181 15.234 48.1873 11.7273 44.9541 11.7273C41.721 11.7273 39.0908 15.234 39.0908 19.5451C39.0908 23.8561 41.721 27.3637 44.9541 27.3637ZM44.9541 14.8323C46.7234 14.8323 48.1626 16.9465 48.1626 19.5451C48.1626 22.1437 46.7234 24.2587 44.9541 24.2587C43.1855 24.2587 41.7463 22.1429 41.7463 19.5451C41.7463 16.9472 43.1855 14.8323 44.9541 14.8323Z" fill="#FF6600"/>
<path d="M54.7273 35.1818C54.7273 39.4931 57.3575 43 60.5906 43C63.8237 43 66.4546 39.4923 66.4546 35.1818C66.4546 30.8721 63.8244 27.3636 60.5913 27.3636C57.3575 27.3636 54.7273 30.8698 54.7273 35.1818ZM63.7991 35.1818C63.7991 37.7806 62.3598 39.8949 60.5906 39.8949C58.822 39.8949 57.3828 37.7806 57.3828 35.1818C57.3828 32.5831 58.822 30.4688 60.5906 30.4688C62.3598 30.4688 63.7991 32.5816 63.7991 35.1818Z" fill="#FF6600"/>
<path d="M85.7922 64.0568C83.6719 60.4132 78.9701 59.0255 75.1119 60.9045L62.5693 66.6428C60.8376 63.5246 57.5157 61.5396 53.86 61.4397L42.2814 61.1308C40.4481 61.0801 38.6491 60.6297 37.019 59.8151L35.8409 59.2239C29.8084 56.1791 22.6181 56.1867 16.592 59.2436L16.6654 56.6591C16.6897 55.8029 15.9931 55.0898 15.1089 55.0663L2.41229 54.7279C1.52807 54.7044 0.792387 55.3789 0.768151 56.2351L0.000583469 83.2149C-0.023039 84.0711 0.673552 84.7842 1.55778 84.8077L14.2543 85.1461H14.2989C15.1659 85.1453 15.875 84.4769 15.8993 83.6381L15.9352 82.3473L19.2337 80.6372C20.5284 79.9627 22.0427 79.8022 23.457 80.1898L43.1531 85.5428C43.1875 85.5526 43.2219 85.5602 43.2571 85.5677C44.6808 85.8562 46.1318 86.0008 47.5867 86C50.6671 86.0015 53.7114 85.3588 56.5111 84.1143C56.5799 84.084 56.6463 84.0491 56.7097 84.0098L85.2676 66.1219C85.9798 65.6768 86.2097 64.7706 85.7922 64.0568ZM3.24648 81.7501L3.92509 57.8711L13.4209 58.1239L12.7415 82.0037L3.24648 81.7501ZM55.0679 81.3435C51.5896 82.8636 47.7048 83.283 43.9662 82.5427L24.3225 77.2048C22.1123 76.5992 19.745 76.8506 17.7224 77.9036L16.0369 78.7772L16.4888 62.9C21.8293 59.4601 28.6795 59.1065 34.3679 61.9764L35.5461 62.5677C37.6054 63.5972 39.8773 64.1658 42.1938 64.2301L53.7724 64.539C57.0247 64.6291 59.7869 66.8714 60.4467 69.957L43.2 69.4975C42.3158 69.4741 41.5801 70.1486 41.5559 71.0048C41.5316 71.861 42.2282 72.5741 43.1125 72.5976L62.1456 73.1048H62.1909C63.0572 73.104 63.7663 72.4356 63.7905 71.5968C63.8101 70.923 63.7577 70.2485 63.6357 69.5853L76.498 63.6994L76.5356 63.682C78.3603 62.7872 80.5673 63.0862 82.0676 64.4315L55.0679 81.3435Z" fill="black"/>
</svg>
