<svg width="100" height="100" viewBox="0 0 100 100" fill="none" xmlns="http://www.w3.org/2000/svg">
<path fill-rule="evenodd" clip-rule="evenodd" d="M50 0C77.6471 0 100 22.3529 100 50C100 77.6471 77.6471 100 50 100C22.3529 100 0 77.6471 0 50C0 22.3529 22.3529 0 50 0Z" fill="#EFEFEF"/>
<path d="M37.2849 43.6984L37.2825 43.7413C37.1223 46.6515 38.6941 49.3778 41.2879 50.6848L41.3145 50.6983C42.2289 51.152 42.9785 51.8999 43.4514 52.8299L43.462 52.8502C44.769 55.4312 47.4721 56.9957 50.3538 56.8387L50.3976 56.8363C51.4427 56.7756 52.4801 57.0552 53.3644 57.6363C55.8045 59.2193 58.9019 59.2193 61.3421 57.6363C62.2264 57.0552 63.2638 56.7756 64.3089 56.8363L64.3526 56.8387C67.2296 56.9969 69.9363 55.4312 71.2462 52.8459L71.2527 52.8318C71.7274 51.8993 72.4787 51.1502 73.3961 50.6959L73.4174 50.6848C76.0112 49.3772 77.5835 46.6515 77.4228 43.7407L77.4204 43.7002C77.3672 42.6752 77.6415 41.6606 78.2018 40.814C79.815 38.374 79.815 35.1566 78.2024 32.716C77.6426 31.87 77.3672 30.856 77.4204 29.831L77.4228 29.7881C77.5835 26.8773 76.0112 24.1516 73.415 22.8433L73.3913 22.8311C72.4787 22.3786 71.7309 21.6344 71.2574 20.7068L71.2438 20.6792C69.9363 18.0982 67.2296 16.5343 64.3526 16.6907L64.3083 16.6931C63.2638 16.7538 62.2264 16.4742 61.3426 15.8931H61.3415C58.9013 14.3101 55.8039 14.3101 53.3638 15.8931C52.4795 16.4736 51.4421 16.7532 50.397 16.6925L50.3532 16.69C47.4757 16.5319 44.7696 18.0976 43.4626 20.678L43.4526 20.697C42.9791 21.6289 42.2289 22.3774 41.3133 22.8317L41.2885 22.8439C38.6947 24.151 37.1223 26.8773 37.2831 29.7881L37.2854 29.8285C37.3386 30.8536 37.0644 31.8682 36.504 32.7142C34.8908 35.1548 34.8908 38.3728 36.504 40.8127C37.0638 41.6588 37.3386 42.6734 37.2849 43.6984ZM38.4966 34.1402C39.3614 32.8344 39.7853 31.2686 39.7025 29.6869L39.7002 29.644C39.615 27.7153 40.6589 25.924 42.3442 25.1043L42.3649 25.0939C43.7475 24.4072 44.8795 23.2768 45.5936 21.8704L45.6054 21.8471C46.4737 20.1318 48.2926 19.092 50.2244 19.1987L50.2669 19.2005C51.8127 19.2906 53.3466 18.8774 54.6542 18.0179C56.3052 16.9469 58.4001 16.9469 60.0511 18.0179C61.3586 18.8762 62.8925 19.29 64.4377 19.2011L64.4803 19.1987C66.4215 19.0932 68.2315 20.1318 69.0975 21.8422L69.1134 21.8735C69.8275 23.278 70.9583 24.4066 72.3392 25.0926L72.3593 25.1031C74.0711 25.9663 75.1103 27.7484 75.0057 29.6446L75.0033 29.6894C74.9206 31.2711 75.345 32.8362 76.2098 34.142C77.2549 35.7231 77.2543 37.8075 76.2086 39.388C75.3444 40.6944 74.9206 42.2602 75.0033 43.8419L75.0057 43.8842C75.1103 45.7804 74.0711 47.5631 72.3587 48.4269L72.3409 48.4355C70.9571 49.1234 69.824 50.2551 69.1093 51.6639L69.1004 51.6823C68.2315 53.3976 66.4156 54.438 64.4809 54.3307L64.4389 54.3283C62.8931 54.2387 61.3586 54.6526 60.0505 55.5115C58.4001 56.5819 56.3052 56.5819 54.6548 55.5115C53.4654 54.7298 52.0858 54.3154 50.6777 54.3166C50.5412 54.3166 50.4041 54.3203 50.2669 54.3283L50.2244 54.3301C48.318 54.4558 46.5145 53.4209 45.6036 51.6792L45.5912 51.6553C44.8783 50.2514 43.7481 49.1234 42.3679 48.4374L42.3454 48.4257C40.6329 47.5625 39.5938 45.7797 39.699 43.8842L39.7013 43.8394C39.7835 42.2577 39.3591 40.692 38.4949 39.3868C37.4504 37.8057 37.451 35.7213 38.4966 34.1414V34.1402Z" fill="#FF6600"/>
<path d="M57.353 55.8823C67.9114 55.8823 76.4706 47.3231 76.4706 36.7647C76.4706 26.2063 67.9114 17.647 57.353 17.647C46.7946 17.647 38.2354 26.2063 38.2354 36.7647C38.2354 47.3231 46.7946 55.8823 57.353 55.8823Z" fill="white"/>
<path d="M50.5998 46.8886C51.1964 47.2166 51.9821 47.0562 52.3547 46.5312L67.447 25.2539C67.6933 24.9139 67.7138 24.4836 67.4998 24.1272C67.2858 23.7703 66.8703 23.5425 66.4124 23.5299C65.9546 23.5174 65.5241 23.7221 65.2852 24.0665L50.1936 45.3437C49.8209 45.8693 50.0026 46.5607 50.5998 46.8886Z" fill="#FF6600"/>
<path d="M51.4704 35.2941C53.9029 35.2941 55.8824 32.6551 55.8824 29.4115C55.8824 26.1679 53.9029 23.5294 51.4704 23.5294C49.0378 23.5294 47.0588 26.1679 47.0588 29.4115C47.0588 32.6551 49.0378 35.2941 51.4704 35.2941ZM51.4704 25.8656C52.8015 25.8656 53.8844 27.4563 53.8844 29.4115C53.8844 31.3666 52.8015 32.9579 51.4704 32.9579C50.1397 32.9579 49.0568 31.3661 49.0568 29.4115C49.0568 27.4569 50.1397 25.8656 51.4704 25.8656Z" fill="#FF6600"/>
<path d="M58.8235 41.1765C58.8235 44.4202 60.8025 47.0588 63.2351 47.0588C65.6676 47.0588 67.6471 44.4197 67.6471 41.1765C67.6471 37.9338 65.6681 35.2941 63.2356 35.2941C60.8025 35.2941 58.8235 37.9321 58.8235 41.1765ZM65.6491 41.1765C65.6491 43.1317 64.5662 44.7225 63.2351 44.7225C61.9044 44.7225 60.8215 43.1317 60.8215 41.1765C60.8215 39.2212 61.9044 37.6304 63.2351 37.6304C64.5662 37.6304 65.6491 39.22 65.6491 41.1765Z" fill="#FF6600"/>
<path d="M82.1966 62.9018C80.6013 60.1604 77.0637 59.1163 74.1608 60.53L64.7239 64.8475C63.421 62.5014 60.9216 61.0079 58.171 60.9327L49.4594 60.7003C48.08 60.6622 46.7265 60.3233 45.5 59.7104L44.6135 59.2655C40.0748 56.9747 34.6648 56.9804 30.1308 59.2804L30.1861 57.3358C30.2043 56.6916 29.6802 56.155 29.0149 56.1374L19.4621 55.8828C18.7968 55.8651 18.2433 56.3726 18.225 57.0168L17.6475 77.3162C17.6298 77.9604 18.1539 78.497 18.8192 78.5146L28.372 78.7693H28.4055C29.0579 78.7687 29.5914 78.2657 29.6096 77.6346L29.6367 76.6635L32.1184 75.3768C33.0925 74.8693 34.2319 74.7486 35.296 75.0402L50.1152 79.0677C50.1411 79.0751 50.167 79.0808 50.1935 79.0865C51.2646 79.3035 52.3564 79.4123 53.4511 79.4118C55.7687 79.4129 58.0593 78.9293 60.1657 77.9929C60.2175 77.9701 60.2675 77.9439 60.3151 77.9143L81.8019 64.4556C82.3378 64.1207 82.5107 63.4389 82.1966 62.9018ZM20.0897 76.2141L20.6003 58.2477L27.7449 58.4379L27.2338 76.4049L20.0897 76.2141ZM59.0798 75.9082C56.4628 77.052 53.5399 77.3675 50.727 76.8105L35.9472 72.7943C34.2843 72.3386 32.5031 72.5277 30.9814 73.32L29.7131 73.9773L30.0531 62.0314C34.0713 59.4433 39.2254 59.1773 43.5053 61.3366L44.3918 61.7814C45.9412 62.556 47.6506 62.9838 49.3935 63.0322L58.1051 63.2646C60.5522 63.3324 62.6304 65.0195 63.1268 67.3411L50.1505 66.9954C49.4852 66.9777 48.9317 67.4852 48.9135 68.1294C48.8953 68.7736 49.4194 69.3102 50.0847 69.3278L64.4051 69.7094H64.4392C65.0909 69.7089 65.6245 69.2059 65.6427 68.5748C65.6574 68.0679 65.618 67.5604 65.5262 67.0614L75.2037 62.6329L75.232 62.6198C76.6049 61.9466 78.2655 62.1716 79.3943 63.1837L59.0798 75.9082Z" fill="#FF6600"/>
</svg>
