<svg width="86" height="86" viewBox="0 0 86 86" fill="none" xmlns="http://www.w3.org/2000/svg">
<path d="M18.3089 59.6292C27.493 59.6292 34.9382 52.184 34.9382 43C34.9382 33.8159 27.493 26.3707 18.3089 26.3707C9.12485 26.3707 1.67969 33.8159 1.67969 43C1.67969 52.184 9.12485 59.6292 18.3089 59.6292Z" fill="#FF6600"/>
<path d="M18.3089 59.6292C22.5368 59.6292 26.3954 58.0505 29.3296 55.4515C28.0111 50.6001 23.5779 47.0312 18.3089 47.0312C13.0398 47.0312 8.60664 50.6001 7.28809 55.4515C10.2223 58.0507 14.0809 59.6292 18.3089 59.6292V59.6292Z" fill="white"/>
<path d="M23.5242 40.5122V41.816C23.5242 44.6963 21.1893 47.0312 18.309 47.0312C15.4287 47.0312 13.0937 44.6963 13.0937 41.816V40.5122C13.0937 37.6319 15.4287 35.2969 18.309 35.2969C21.1893 35.2969 23.5242 37.6319 23.5242 40.5122Z" fill="#F9F9F9"/>
<path d="M70.2109 29.8984C73.7983 29.8984 77.0721 28.5589 79.5616 26.3538C78.4429 22.2374 74.6814 19.2094 70.2109 19.2094C65.7403 19.2094 61.979 22.2374 60.8603 26.3538C63.3498 28.5589 66.6236 29.8984 70.2109 29.8984Z" fill="white"/>
<path d="M74.6359 13.6782V14.7844C74.6359 17.2282 72.6547 19.2094 70.2109 19.2094C67.7671 19.2094 65.7859 17.2282 65.7859 14.7844V13.6782C65.7859 11.2344 67.7671 9.25323 70.2109 9.25323C72.6549 9.25323 74.6359 11.2344 74.6359 13.6782Z" fill="#F9F9F9"/>
<path d="M70.2109 84.3203C78.0033 84.3203 84.3203 78.0033 84.3203 70.2109C84.3203 62.4185 78.0033 56.1016 70.2109 56.1016C62.4185 56.1016 56.1016 62.4185 56.1016 70.2109C56.1016 78.0033 62.4185 84.3203 70.2109 84.3203Z" fill="#EFF3F3"/>
<path d="M70.2109 84.3203C73.7983 84.3203 77.0721 82.9808 79.5616 80.7757C78.4429 76.6593 74.6814 73.6313 70.2109 73.6313C65.7403 73.6313 61.979 76.6593 60.8603 80.7757C63.3498 82.9808 66.6236 84.3203 70.2109 84.3203Z" fill="#F9F9F9"/>
<path d="M74.6359 68.1001V69.2063C74.6359 71.6501 72.6547 73.6313 70.2109 73.6313C67.7671 73.6313 65.7859 71.6501 65.7859 69.2063V68.1001C65.7859 65.6563 67.7671 63.6751 70.2109 63.6751C72.6549 63.6751 74.6359 65.6563 74.6359 68.1001Z" fill="#F9F9F9"/>
<path d="M70.2109 54.4219C64.7496 54.4219 59.9274 57.2093 57.0912 61.4361L35.2351 49.9774C36.1254 47.8257 36.618 45.4695 36.618 42.9998C36.618 40.5876 36.1459 38.2208 35.2387 36.0206L57.0912 24.5638C59.9274 28.7907 64.7496 31.5781 70.2109 31.5781C78.9171 31.5781 86 24.4952 86 15.7891C86 7.08291 78.9171 0 70.2109 0C61.5048 0 54.4219 7.08291 54.4219 15.7891C54.4219 17.8366 54.8137 19.7943 55.5264 21.5912L33.6761 33.047C31.8785 30.2765 29.3727 28.0417 26.4153 26.5792C25.5833 26.1673 24.5762 26.5088 24.1652 27.3403C23.754 28.1719 24.0948 29.1792 24.9262 29.5904C30.0659 32.1319 33.2587 37.2701 33.2587 42.9998C33.2587 46.5564 32.0095 49.8263 29.9277 52.3955C28.5179 49.6973 26.2103 47.5881 23.4479 46.4064C24.5389 45.1863 25.2039 43.5775 25.2039 41.8158V40.5119C25.2039 36.7099 22.1109 33.6169 18.3089 33.6169C14.507 33.6169 11.4138 36.7099 11.4138 40.5119V41.8158C11.4138 43.5775 12.0788 45.1863 13.1698 46.4064C10.4073 47.5881 8.09979 49.6973 6.69003 52.3957C4.60856 49.8266 3.35938 46.5567 3.35938 43C3.35938 37.2703 6.55229 32.1319 11.6921 29.5902C12.5236 29.179 12.8644 28.1716 12.4532 27.3401C12.0422 26.5085 11.0347 26.1679 10.2031 26.579C7.18772 28.0701 4.64014 30.3625 2.83582 33.2084C0.980601 36.1344 0 39.5204 0 43C0 53.0956 8.21334 61.3089 18.3089 61.3089C24.7383 61.3089 30.4034 57.9773 33.6708 52.9505L55.5264 64.4088C54.8137 66.2057 54.4219 68.1634 54.4219 70.2109C54.4219 78.9171 61.5048 86 70.2109 86C78.9171 86 86 78.9171 86 70.2109C86 61.5048 78.9171 54.4219 70.2109 54.4219ZM62.8294 25.7822C64.066 22.8555 66.9646 20.8891 70.2109 20.8891C73.4573 20.8891 76.3557 22.8555 77.5925 25.7822C75.5268 27.3121 72.973 28.2188 70.2109 28.2188C67.4489 28.2188 64.8951 27.3121 62.8294 25.7822ZM67.4657 14.7846V13.6784C67.4657 12.1645 68.6972 10.9329 70.2109 10.9329C71.7248 10.9329 72.9564 12.1645 72.9564 13.6784V14.7846C72.9564 16.2983 71.7248 17.5299 70.2109 17.5299C68.6972 17.5297 67.4657 16.2982 67.4657 14.7846V14.7846ZM70.2109 3.35938C77.0647 3.35938 82.6406 8.93527 82.6406 15.7891C82.6406 18.6083 81.6956 21.2101 80.1078 23.2978C78.9294 21.2212 77.1247 19.5784 74.9831 18.5852C75.8161 17.5415 76.3158 16.2207 76.3158 14.7846V13.6784C76.3158 10.3121 73.5772 7.57354 70.2109 7.57354C66.8448 7.57354 64.1063 10.3121 64.1063 13.6784V14.7846C64.1063 16.2207 64.606 17.5415 65.4389 18.5852C63.2973 19.5784 61.4925 21.2213 60.3141 23.2979C58.7262 21.2101 57.7812 18.6084 57.7812 15.7891C57.7812 8.93527 63.3571 3.35938 70.2109 3.35938V3.35938ZM14.7734 40.512C14.7734 38.5626 16.3595 36.9765 18.3091 36.9765C20.2587 36.9765 21.8447 38.5624 21.8447 40.512V41.816C21.8447 43.7654 20.2587 45.3517 18.3091 45.3517C16.3595 45.3517 14.7734 43.7656 14.7734 41.816V40.512ZM9.2445 54.8794C10.6946 51.2006 14.2814 48.7111 18.3089 48.7111C22.3367 48.7111 25.9235 51.2004 27.3737 54.8793C24.8572 56.804 21.7147 57.9496 18.3089 57.9496C14.9034 57.9496 11.7608 56.8042 9.2445 54.8794V54.8794ZM62.8294 80.2041C64.066 77.2774 66.9646 75.311 70.2109 75.311C73.4573 75.311 76.3557 77.2774 77.5925 80.2041C75.5268 81.7339 72.973 82.6406 70.2109 82.6406C67.4489 82.6406 64.8951 81.7339 62.8294 80.2041V80.2041ZM67.4657 69.2065V68.1002C67.4657 66.5863 68.6972 65.3548 70.2109 65.3548C71.7248 65.3548 72.9564 66.5863 72.9564 68.1002V69.2065C72.9564 70.7202 71.7248 71.9518 70.2109 71.9518C68.6972 71.9516 67.4657 70.72 67.4657 69.2065V69.2065ZM80.1078 77.7196C78.9294 75.643 77.1247 74.0003 74.9831 73.0071C75.8161 71.9634 76.3158 70.6426 76.3158 69.2065V68.1002C76.3158 64.734 73.5772 61.9954 70.2109 61.9954C66.8448 61.9954 64.1063 64.734 64.1063 68.1002V69.2065C64.1063 70.6426 64.606 71.9634 65.4389 73.0071C63.2973 74.0003 61.4925 75.6432 60.3141 77.7198C58.7262 75.632 57.7812 73.0303 57.7812 70.2109C57.7812 63.3571 63.3571 57.7812 70.2109 57.7812C77.0647 57.7812 82.6406 63.3571 82.6406 70.2109C82.6406 73.0301 81.6956 75.632 80.1078 77.7196V77.7196Z" fill="black"/>
<path d="M18.3086 28.0508C18.7504 28.0508 19.1837 27.8711 19.496 27.5585C19.8101 27.2462 19.9883 26.8129 19.9883 26.3711C19.9883 25.9293 19.8101 25.496 19.496 25.1836C19.1837 24.8711 18.7519 24.6914 18.3086 24.6914C17.8668 24.6914 17.4335 24.871 17.1211 25.1836C16.8086 25.4961 16.6289 25.9275 16.6289 26.3711C16.6289 26.8129 16.8085 27.2462 17.1211 27.5585C17.4335 27.8711 17.8668 28.0508 18.3086 28.0508Z" fill="black"/>
</svg>
