<svg width="96" height="96" viewBox="0 0 96 96" fill="none" xmlns="http://www.w3.org/2000/svg">
<path d="M46.5 10.5H25.5L24 3H48L46.5 10.5Z" fill="#3E3D42"/>
<path d="M61.5 62.9831V63.0001H60.75C61.0013 63.0001 61.2506 62.9945 61.5 62.9831Z" fill="#E0E0E2"/>
<path d="M67.5 46.5C69.1569 46.5 70.5 45.1569 70.5 43.5C70.5 41.8431 69.1569 40.5 67.5 40.5C65.8431 40.5 64.5 41.8431 64.5 43.5C64.5 45.1569 65.8431 46.5 67.5 46.5Z" fill="#FF6600"/>
<path d="M57 46.5C58.6569 46.5 60 45.1569 60 43.5C60 41.8431 58.6569 40.5 57 40.5C55.3431 40.5 54 41.8431 54 43.5C54 45.1569 55.3431 46.5 57 46.5Z" fill="#FF6600"/>
<path d="M78 46.5C79.6569 46.5 81 45.1569 81 43.5C81 41.8431 79.6569 40.5 78 40.5C76.3431 40.5 75 41.8431 75 43.5C75 45.1569 76.3431 46.5 78 46.5Z" fill="#FF6600"/>
<path d="M28.5 85.5H18C17.6022 85.5 17.2206 85.658 16.9393 85.9393C16.658 86.2206 16.5 86.6022 16.5 87C16.5 87.3978 16.658 87.7794 16.9393 88.0607C17.2206 88.342 17.6022 88.5 18 88.5H28.5C28.8978 88.5 29.2794 88.342 29.5607 88.0607C29.842 87.7794 30 87.3978 30 87C30 86.6022 29.842 86.2206 29.5607 85.9393C29.2794 85.658 28.8978 85.5 28.5 85.5Z" fill="black"/>
<path d="M34.5 85.5H33C32.6022 85.5 32.2206 85.658 31.9393 85.9393C31.658 86.2206 31.5 86.6022 31.5 87C31.5 87.3978 31.658 87.7794 31.9393 88.0607C32.2206 88.342 32.6022 88.5 33 88.5H34.5C34.8978 88.5 35.2794 88.342 35.5607 88.0607C35.842 87.7794 36 87.3978 36 87C36 86.6022 35.842 86.2206 35.5607 85.9393C35.2794 85.658 34.8978 85.5 34.5 85.5Z" fill="black"/>
<path d="M66.75 24C65.4919 24.0005 64.2366 24.1172 63 24.3488V9C62.998 7.01149 62.2072 5.10498 60.8011 3.69889C59.395 2.2928 57.4885 1.50199 55.5 1.5H16.5C14.5115 1.50199 12.605 2.2928 11.1989 3.69889C9.7928 5.10498 9.00199 7.01149 9 9V87C9.00199 88.9885 9.7928 90.895 11.1989 92.3011C12.605 93.7072 14.5115 94.498 16.5 94.5H55.5C57.4885 94.498 59.395 93.7072 60.8011 92.3011C62.2072 90.895 62.998 88.9885 63 87V64.5C63 64.5 67.2956 64.4944 67.5581 64.4812C72.8542 64.2698 77.8563 61.9901 81.4903 58.1317C85.1244 54.2733 87.1006 49.1438 86.9948 43.8445C86.8891 38.5453 84.7096 33.4987 80.9245 29.7885C77.1394 26.0782 72.0503 24 66.75 24V24ZM46.17 4.5L45.27 9H26.73L25.83 4.5H46.17ZM60 87C59.9984 88.193 59.5238 89.3367 58.6802 90.1802C57.8367 91.0238 56.693 91.4984 55.5 91.5H16.5C15.307 91.4984 14.1633 91.0238 13.3198 90.1802C12.4762 89.3367 12.0016 88.193 12 87V9C12.0016 7.80701 12.4762 6.66334 13.3198 5.81977C14.1633 4.9762 15.307 4.50159 16.5 4.5H22.77L24.03 10.7944C24.0977 11.1344 24.2812 11.4404 24.5493 11.6602C24.8173 11.8801 25.1533 12.0002 25.5 12H46.5C46.8467 12.0002 47.1827 11.8801 47.4507 11.6602C47.7188 11.4404 47.9023 11.1344 47.97 10.7944L49.23 4.5H55.5C56.693 4.50159 57.8367 4.9762 58.6802 5.81977C59.5238 6.66334 59.9984 7.80701 60 9V25.1587C56.0549 26.559 52.6396 29.1456 50.2226 32.5636C47.8056 35.9816 46.5053 40.0637 46.5 44.25C46.48 49.0737 48.2009 53.7427 51.3469 57.3994L42.8287 61.6575C42.526 61.8084 42.2832 62.0572 42.1396 62.3634C41.9961 62.6697 41.9603 63.0155 42.038 63.3447C42.1157 63.6739 42.3025 63.9672 42.5679 64.1769C42.8333 64.3866 43.1617 64.5005 43.5 64.5H60V87ZM79.1738 56.2181C76.0909 59.4297 71.8811 61.3181 67.4325 61.485C67.2056 61.4944 49.8544 61.5 49.8544 61.5L54.4988 59.1787C54.7141 59.0707 54.9003 58.9125 55.0416 58.7174C55.1829 58.5222 55.2752 58.296 55.3106 58.0577C55.3461 57.8194 55.3238 57.5761 55.2454 57.3483C55.1671 57.1205 55.0351 56.9148 54.8606 56.7488C52.3854 54.3941 50.6652 51.3574 49.9179 48.0238C49.1707 44.6902 49.4301 41.2098 50.6633 38.0239C51.8965 34.8379 54.048 32.0899 56.8449 30.1281C59.6419 28.1664 62.9583 27.0794 66.3738 27.0048C69.7893 26.9303 73.1501 27.8716 76.0299 29.7094C78.9098 31.5473 81.1791 34.1988 82.5501 37.3279C83.9212 40.4571 84.3322 43.9228 83.7311 47.2859C83.13 50.6489 81.5439 53.7577 79.1738 56.2181V56.2181Z" fill="black"/>
<path d="M67.5 39C66.61 39 65.74 39.2639 64.9999 39.7584C64.2599 40.2529 63.6831 40.9557 63.3425 41.7779C63.002 42.6002 62.9128 43.505 63.0865 44.3779C63.2601 45.2508 63.6887 46.0527 64.318 46.682C64.9474 47.3113 65.7492 47.7399 66.6221 47.9136C67.495 48.0872 68.3998 47.9981 69.2221 47.6575C70.0443 47.3169 70.7472 46.7401 71.2416 46.0001C71.7361 45.2601 72 44.39 72 43.5C71.9986 42.307 71.5241 41.1632 70.6805 40.3196C69.8368 39.4759 68.6931 39.0014 67.5 39V39ZM67.5 45C67.2033 45 66.9133 44.912 66.6667 44.7472C66.42 44.5824 66.2277 44.3481 66.1142 44.074C66.0007 43.7999 65.9709 43.4983 66.0288 43.2074C66.0867 42.9164 66.2296 42.6491 66.4393 42.4393C66.6491 42.2296 66.9164 42.0867 67.2074 42.0288C67.4983 41.971 67.7999 42.0007 68.074 42.1142C68.3481 42.2277 68.5824 42.42 68.7472 42.6667C68.912 42.9133 69 43.2033 69 43.5C68.9996 43.8977 68.8414 44.279 68.5602 44.5602C68.279 44.8414 67.8977 44.9996 67.5 45Z" fill="black"/>
<path d="M57 39C56.11 39 55.24 39.2639 54.4999 39.7584C53.7599 40.2529 53.1831 40.9557 52.8425 41.7779C52.502 42.6002 52.4128 43.505 52.5865 44.3779C52.7601 45.2508 53.1887 46.0527 53.818 46.682C54.4474 47.3113 55.2492 47.7399 56.1221 47.9136C56.995 48.0872 57.8998 47.9981 58.7221 47.6575C59.5443 47.3169 60.2472 46.7401 60.7416 46.0001C61.2361 45.2601 61.5 44.39 61.5 43.5C61.4986 42.307 61.0241 41.1632 60.1805 40.3196C59.3368 39.4759 58.1931 39.0014 57 39V39ZM57 45C56.7033 45 56.4133 44.912 56.1667 44.7472C55.92 44.5824 55.7277 44.3481 55.6142 44.074C55.5007 43.7999 55.4709 43.4983 55.5288 43.2074C55.5867 42.9164 55.7296 42.6491 55.9393 42.4393C56.1491 42.2296 56.4164 42.0867 56.7074 42.0288C56.9983 41.971 57.2999 42.0007 57.574 42.1142C57.8481 42.2277 58.0824 42.42 58.2472 42.6667C58.412 42.9133 58.5 43.2033 58.5 43.5C58.4996 43.8977 58.3414 44.279 58.0602 44.5602C57.779 44.8414 57.3977 44.9996 57 45Z" fill="black"/>
<path d="M78 39C77.11 39 76.24 39.2639 75.4999 39.7584C74.7599 40.2529 74.1831 40.9557 73.8425 41.7779C73.502 42.6002 73.4128 43.505 73.5865 44.3779C73.7601 45.2508 74.1887 46.0527 74.818 46.682C75.4474 47.3113 76.2492 47.7399 77.1221 47.9136C77.995 48.0872 78.8998 47.9981 79.7221 47.6575C80.5443 47.3169 81.2472 46.7401 81.7416 46.0001C82.2361 45.2601 82.5 44.39 82.5 43.5C82.4986 42.307 82.0241 41.1632 81.1805 40.3196C80.3368 39.4759 79.1931 39.0014 78 39V39ZM78 45C77.7033 45 77.4133 44.912 77.1667 44.7472C76.92 44.5824 76.7277 44.3481 76.6142 44.074C76.5007 43.7999 76.4709 43.4983 76.5288 43.2074C76.5867 42.9164 76.7296 42.6491 76.9393 42.4393C77.1491 42.2296 77.4164 42.0867 77.7074 42.0288C77.9983 41.971 78.2999 42.0007 78.574 42.1142C78.8481 42.2277 79.0824 42.42 79.2472 42.6667C79.412 42.9133 79.5 43.2033 79.5 43.5C79.4996 43.8977 79.3414 44.279 79.0602 44.5602C78.779 44.8414 78.3977 44.9996 78 45Z" fill="black"/>
</svg>
