<svg width="86" height="86" viewBox="0 0 86 86" fill="none" xmlns="http://www.w3.org/2000/svg">
<path d="M81.8387 55.3839H19.0865L30.5868 43.8835L30.6161 43.8542V43.8128V23.5806C30.6161 21.3416 32.4383 19.5193 34.6774 19.5193H81.8387C84.0777 19.5193 85.9 21.3416 85.9 23.5806V51.3226C85.9 53.5616 84.0777 55.3839 81.8387 55.3839Z" fill="#FF6600" stroke="#FF6600" stroke-width="0.2"/>
<path d="M50.52 43H52.92L48.792 37.16L52.6 31.8H50.328L47.16 36.392H46.04V31.8H44.12V43H46.04V38.088H47.16L50.52 43ZM58.1956 43.144C61.1556 43.144 63.1556 41.16 63.1556 37.816V36.984C63.1556 33.624 61.1876 31.656 58.1956 31.656C55.2356 31.656 53.2356 33.656 53.2356 36.984V37.816C53.2356 41.176 55.2036 43.144 58.1956 43.144ZM58.1956 41.352C56.4676 41.352 55.2516 40.136 55.2516 37.816V36.984C55.2516 34.632 56.4356 33.448 58.1956 33.448C59.9076 33.448 61.1396 34.68 61.1396 36.984V37.816C61.1396 40.168 59.9396 41.352 58.1956 41.352ZM72.3346 45.4H74.1906V41.304H73.1506V31.8H65.5506V35.48C65.5506 39.16 65.2466 40.216 64.4786 41.304H63.5506V45.4H65.4066V43H72.3346V45.4ZM67.4706 35.48V33.496H71.2306V41.304H66.6386C67.2306 40.248 67.4706 38.744 67.4706 35.48Z" fill="#F9F9F9"/>
<path d="M43 0H6.93548C3.11126 0 0 3.11126 0 6.93548V79.0645C0 82.8887 3.11126 86 6.93548 86H43C46.8242 86 49.9355 82.8887 49.9355 79.0645V58.2581H47.1613V72.129H2.77419V13.871H47.1613V19.4194H49.9355V6.93548C49.9355 3.11126 46.8242 0 43 0ZM47.1613 74.9032V79.0645C47.1613 81.3588 45.2943 83.2258 43 83.2258H6.93548C4.64123 83.2258 2.77419 81.3588 2.77419 79.0645V74.9032H47.1613ZM2.77419 11.0968V6.93548C2.77419 4.64123 4.64123 2.77419 6.93548 2.77419H43C45.2943 2.77419 47.1613 4.64123 47.1613 6.93548V11.0968H2.77419Z" fill="black"/>
<path d="M30.5161 77.6774H19.4194V80.4516H30.5161V77.6774Z" fill="black"/>
<path d="M44.387 58.2581H41.6129V61.0322H44.387V58.2581Z" fill="black"/>
<path d="M38.8387 58.2581H36.0645V61.0322H38.8387V58.2581Z" fill="black"/>
<path d="M33.2904 58.2581H30.5162V61.0322H33.2904V58.2581Z" fill="black"/>
<path d="M27.742 58.2581H24.9678V61.0322H27.742V58.2581Z" fill="black"/>
</svg>
