<?xml version="1.0" encoding="utf-8"?>
<!-- Generator: Adobe Illustrator 20.1.0, SVG Export Plug-In . SVG Version: 6.00 Build 0)  -->
<svg version="1.1" id="Слой_1" xmlns="http://www.w3.org/2000/svg" xmlns:xlink="http://www.w3.org/1999/xlink" x="0px" y="0px"
	 viewBox="0 0 935.8 626.9" style="enable-background:new 0 0 935.8 626.9;" xml:space="preserve">
<style type="text/css">
	.st0{fill:none;}
</style>
<path class="st0" d="M1147,1133.7l0.4,0l6.1-10.5l10.2,5.6l0.6,0l-5.2-14.3l-3.5,0.4l3.1,8l-6.8-3.5l-1.2,2.3l0,0l-3.3,5.8l-2.8-5.2
	l-3,1.5L1147,1133.7z"/>
<path class="st0" d="M1130.8,1128.8l16.4-8.9l2.5,1.3l1.2-2.3l-3.5-1.8h-0.2h-0.2l-11.1,5.7l3.1-8l-3.5-0.4l-5.2,14.3L1130.8,1128.8
	z"/>
<path d="M460.9,626.8l10.1,0l167.2-341.6l281,181.2l16.7,0.6L792.5,0l-97,13.8L779.6,274L592.1,159.4l-34.3,74l0.1,0.1L467,423.8
	l-76.8-167.9l-81.9,50.3L460.9,626.8z"/>
<path d="M16.7,466.4l451.2-288.3l67.5,41.4l33.4-74.4L473.6,87h-5.7h-5.7L156.2,274l84.1-260.2L143.3,0L0,467L16.7,466.4z"/>
<path class="st0" d="M1002.1,1046.2l0.4,0l6.1-10.5l10.2,5.6l0.6,0l-5.2-14.3l-3.5,0.4l3.1,8l-6.8-3.5l-1.2,2.3l0,0l-3.3,5.8
	l-2.8-5.2l-3,1.5L1002.1,1046.2z"/>
<path class="st0" d="M986,1041.3l16.4-8.9l2.5,1.3l1.2-2.3l-3.5-1.8h-0.2h-0.2l-11.1,5.7l3.1-8l-3.5-0.4l-5.2,14.3L986,1041.3z"/>
</svg>
