<?xml version="1.0" encoding="utf-8"?>
<!-- Generator: Adobe Illustrator 20.1.0, SVG Export Plug-In . SVG Version: 6.00 Build 0)  -->
<svg version="1.1" id="" xmlns="http://www.w3.org/2000/svg" xmlns:xlink="http://www.w3.org/1999/xlink" x="0px" y="0px"
	 viewBox="0 0 35 29.2" style="enable-background:new 0 0 35 29.2;" xml:space="preserve">
<path d="M25.9,7c-1.8,1.8-2.7,3.8-2.7,6c0,1,0.2,1.8,0.5,2.4c0.3,0.6,0.6,1.1,0.9,1.4c0.6-0.4,1.2-0.6,1.9-0.7
	c0.7-0.1,1.4-0.2,2.1-0.2c0.7,0,1.4,0.1,2.1,0.4c0.7,0.2,1.4,0.6,2.1,1.2c0.6,0.5,1.2,1.2,1.6,2.1c0.4,0.8,0.7,1.9,0.7,3
	c0,1.2-0.2,2.2-0.7,3c-0.4,0.8-1,1.5-1.7,2.1c-0.7,0.5-1.4,0.9-2.3,1.2c-0.8,0.2-1.7,0.4-2.5,0.4c-2.4,0-4.4-1-6.1-2.9
	c-1.7-1.9-2.5-4.7-2.5-8.2c0-2.4,0.5-4.6,1.4-6.4c0.9-1.9,2-3.5,3.3-4.9c1.3-1.4,2.7-2.7,4.3-3.8c1.6-1.1,3-2.1,4.3-2.9l0.7,1.2
	C30.2,3.3,27.7,5.3,25.9,7z M6.6,7c-1.8,1.8-2.7,3.8-2.7,6c0,1,0.2,1.8,0.5,2.4c0.3,0.6,0.6,1.1,0.9,1.4c0.6-0.4,1.2-0.6,1.9-0.7
	C7.9,16,8.6,16,9.2,16c0.7,0,1.4,0.1,2.1,0.4c0.7,0.2,1.4,0.6,2.1,1.2c0.6,0.5,1.2,1.2,1.6,2.1c0.4,0.8,0.7,1.9,0.7,3
	c0,1.2-0.2,2.2-0.7,3c-0.4,0.8-1,1.5-1.7,2.1c-0.7,0.5-1.4,0.9-2.3,1.2c-0.8,0.2-1.7,0.4-2.5,0.4c-2.4,0-4.4-1-6.1-2.9
	C0.8,24.4,0,21.6,0,18.1c0-2.4,0.5-4.6,1.4-6.4c0.9-1.9,2-3.5,3.3-4.9C6,5.3,7.4,4,9,2.9c1.6-1.1,3-2.1,4.3-2.9l0.7,1.2
	C10.9,3.3,8.4,5.3,6.6,7z"/>
</svg>
